<?xml version="1.0" encoding="UTF-8" standalone="no"?>
<!DOCTYPE svg PUBLIC "-//W3C//DTD SVG 1.1//EN" "http://www.w3.org/Graphics/SVG/1.1/DTD/svg11.dtd">
<svg width="100%" height="100%" viewBox="0 0 659 780" version="1.1" xmlns="http://www.w3.org/2000/svg" xmlns:xlink="http://www.w3.org/1999/xlink" xml:space="preserve" xmlns:serif="http://www.serif.com/" style="fill-rule:evenodd;clip-rule:evenodd;stroke-linecap:round;stroke-linejoin:round;stroke-miterlimit:1.5;">
    <g>
        <g transform="matrix(0.842055,-0.340098,1.70924,0.797274,-619.152,142.01)">
            <rect x="41" y="365" width="207" height="52" style="fill:white;stroke:rgb(252,254,253);stroke-width:0.58px;"/>
        </g>
        <g transform="matrix(0.834199,-0.366482,1.54292,1.09177,-243.917,172.453)">
            <rect x="41" y="365" width="207" height="52" style="fill:white;stroke:rgb(252,254,253);stroke-width:0.61px;"/>
        </g>
        <g transform="matrix(0.834096,0.339966,-1.65937,0.785264,1009.93,47.6191)">
            <rect x="41" y="365" width="207" height="52" style="fill:white;stroke:rgb(252,254,253);stroke-width:1.08px;"/>
        </g>
        <g transform="matrix(0.840379,0.365757,-1.57027,1.04701,666.099,82.3632)">
            <rect x="41" y="365" width="207" height="52" style="fill:white;stroke:rgb(252,254,253);stroke-width:0.95px;"/>
        </g>
        <g transform="matrix(0.763085,0.332116,-3.11505,1.28902,1436.32,-80.5098)">
            <rect x="41" y="365" width="207" height="52" style="stroke:rgb(252,254,253);stroke-width:0.53px;"/>
        </g>
        <path d="M142,604L142,673L314,756L314,573L223,641L142,604Z" style="fill:white;stroke:rgb(252,254,253);stroke-width:1.07px;"/>
        <path d="M337,573L337,757L510,674L510,605L431,641L337,573Z" style="fill:white;stroke:rgb(252,254,253);stroke-width:1.07px;"/>
        <path d="M314,158C314,158 186.193,168.334 186,168C185.807,167.666 173.291,173.345 174,185C174.643,195.571 181.418,200.627 186,201C190.582,201.373 300,194 300,194L299,248L248,273L174,283C174,283 163.541,285.739 164,300C164.459,314.261 174.867,316.02 175,316C175.133,315.98 258,307 258,307L333,272L368,300L310,320C310,320 296.306,327.457 302,341C307.345,353.714 318.137,353.379 318,353C317.863,352.621 400,326 400,326C400,326 410.851,323.009 413,309C414.724,297.766 411,294 411,294L362,245L361,162L400,120L413,42C413,42 413.755,31.687 400,27C386.245,22.313 380.968,37.361 381,37C381.032,36.639 370,103 370,103L314,158Z" style="fill:white;stroke:rgb(252,254,253);stroke-width:1.07px;"/>
        <g transform="matrix(1,0,0,1,16,10)">
            <circle cx="273" cy="95" r="45" style="fill:white;stroke:rgb(252,254,253);stroke-width:1.07px;"/>
        </g>
    </g>
</svg>
