<svg version="1.1" id="Layer_1" xmlns="http://www.w3.org/2000/svg" xmlns:xlink="http://www.w3.org/1999/xlink" x="0px" y="0px" viewBox="0 0 251.2 67.5" style="enable-background:new 0 0 251.2 67.5;" xml:space="preserve">
 <style type="text/css">
  .st0{fill:#0033A0;}
 </style>
 <g>
  <g>
   <path class="st0" d="M248.4,45.7c-1.7,0-2.8-1.1-2.8-2.8s1.2-2.8,2.8-2.8c1.7,0,2.8,1.1,2.8,2.8C251.2,44.5,250.1,45.7,248.4,45.7
			 M248.4,40.4c-1.4,0-2.4,0.9-2.4,2.5s1.1,2.5,2.4,2.5c1.4,0,2.4-0.9,2.4-2.5C250.8,41.3,249.8,40.4,248.4,40.4 M249.2,44.4l-1-1.3
			H248v1.3h-0.6v-3.1h1c0.7,0,1.1,0.3,1.1,0.9l-0.6,0.9l0.9,1.3L249.2,44.4z M248.4,41.7H248v0.9h0.4l0.6-0.5L248.4,41.7">
   </path>
   <path class="st0" d="M98.2,11.7l-21.9,34h7.4l5.6-8.7h12.6v8.7h7.1v-34 M101.8,30.9h-8.6c0.5-0.8,8.6-13.5,8.6-13.5V30.9z">
   </path>
   <rect x="113.9" y="11.7" class="st0" width="6.9" height="33.9">
   </rect>
   <rect x="125.8" y="11.7" class="st0" width="6.8" height="33.9">
   </rect>
   <path class="st0" d="M147.7,29.6c-3.7-0.9-4.5-1.5-4.4-3c0.1-1.4,1.2-2.1,3.2-2.1c2.4,0,5.3,0.8,7.8,2.2l0.4,0.2l1-5.7l-0.2-0.1
			c-2.6-1.1-5.6-1.7-8.9-1.7c-3.1,0-5.8,0.9-7.5,2.6c-1.4,1.3-2.1,3.1-2,5c0.1,5.2,2.7,6.7,8.8,8.2c4,1,4.9,1.5,4.8,3.4
			c0,1.7-1.1,2.3-3.8,2.3c-2.9,0-6.1-1-8.9-2.8l-0.4-0.3l-1,5.7l0.2,0.1c2.2,1.2,5.9,2.4,9.9,2.4c3.8,0,6.7-0.9,8.4-2.6
			c1.4-1.3,2-3.1,2-5.4C156.9,32.5,154,31.2,147.7,29.6">
   </path>
   <path class="st0" d="M173.7,39.9l-0.4,0.1c-0.5,0.1-1.1,0.2-1.9,0.2c-2,0-3-0.9-3-2.8v-12h5l0.1-5.5h-5.1v-8.2h-6.7v8.2h-3.5v5.5
			h3.5v13c0,5.1,2.8,7.7,8.5,7.7c1.9,0,3-0.2,4-0.4l0.3-0.1">
   </path>
   <path class="st0" d="M188.3,19.4c-4.3,0-7.5,1-10.1,2l-0.2,0.1l0.9,5.4l0.4-0.2c3.1-1.3,5.7-1.9,8.2-1.9c2.7,0,4,1.1,4,3.4v0.7
			c-10.1,1-15.1,4.3-15.1,10.2c0,4.3,2.9,7.1,7.4,7.1c3.1,0,5.7-1.1,8.1-3.3c0.1,0.8,0.5,2.8,0.5,2.8h5.9V28
			C198.3,22.1,195.1,19.4,188.3,19.4 M185.9,41c-1.7,0-2.7-1-2.7-2.6c0-2.9,2.9-4.7,8.3-5.4v5.6C189.7,40.1,187.8,41,185.9,41">
   </path>
   <path class="st0" d="M215.9,39.9l-0.4,0.1c-0.5,0.1-1.1,0.2-1.9,0.2c-2,0-3-0.9-3-2.8v-12h5l0.1-5.5h-5.1v-8.2h-6.8v8.2h-3.5v5.5
			h3.5v13c0,5.1,2.8,7.7,8.6,7.7c1.9,0,3-0.2,4-0.4l0.3-0.1">
   </path>
   <path class="st0" d="M239.4,38c-3.1,2-5.6,2.9-8.4,2.9c-3.7,0-6-2.4-6.4-6.6h16l0.1-1.8c0-8.7-3.8-13.2-11.2-13.2
			c-3.3,0-5.9,1-8,2.9c-2.5,2.4-3.8,6-3.8,10.6c0,8.2,4.8,13.3,12.5,13.3c3.8,0,7.2-1,10.2-3l0.2-0.1l-0.8-5.4 M224.7,29.9
			c0.3-3.7,2-5.8,4.6-5.8c3.5,0,4.5,3.1,4.6,5.8C233.9,29.9,224.7,29.9,224.7,29.9z">
   </path>
   <polyline class="st0" points="106.2,60.2 106.2,64.6 104.6,64.6 104.6,60.2 100.6,53.7 102.1,53.4 105.4,58.8 108.7,53.5 
			110.4,53.5 		">
   </polyline>
   <path class="st0" d="M113.6,64.8c-2.1,0-3.7-1.5-3.7-4s1.5-4,3.7-4c2.1,0,3.7,1.5,3.7,4C117.3,63.3,115.8,64.8,113.6,64.8
			 M113.6,58c-1.4,0-2.2,1.2-2.2,2.8s0.7,2.8,2.2,2.8s2.2-1.2,2.2-2.8C115.8,59.2,115.1,58,113.6,58">
   </path>
   <path class="st0" d="M124.3,64.6l-0.2-1.1c-0.8,0.7-1.7,1.3-2.8,1.3c-1.5,0-2.3-0.9-2.3-2.3v-5.6h1.5v5.2c0,0.8,0.4,1.3,1.2,1.3
			c0.8,0,1.6-0.5,2.3-1.2v-5.3h1.5v7.7">
   </path>
   <polyline class="st0" points="128,57.2 127.2,57 127.7,53.5 129.4,53.5 		">
   </polyline>
   <path class="st0" d="M132,60.1v4.6h-1.5V57h1.2l0.2,1.6c0.6-0.9,1.5-1.7,2.8-1.7l0.2,1.4C133.6,58.2,132.5,59,132,60.1">
   </path>
   <path class="st0" d="M142.6,60.9h-5.4c0.1,1.8,0.9,2.6,2.3,2.6c1.2,0,2-0.4,2.8-1.1l0.2,1.3c-0.9,0.6-1.9,1-3.2,1
			c-2.1,0-3.7-1.2-3.7-4c0-2.5,1.5-4,3.5-4c2.3,0,3.4,1.7,3.4,3.9 M139.2,57.9c-0.9,0-1.7,0.6-1.9,2h3.9
			C140.9,58.6,140.3,57.9,139.2,57.9">
   </path>
   <path class="st0" d="M148.7,55.4c-0.5,0-1-0.4-1-0.9s0.4-0.9,1-0.9c0.5,0,0.9,0.4,0.9,0.9C149.6,55,149.2,55.4,148.7,55.4
			 M148,56.9h1.5v7.7H148V56.9z">
   </path>
   <path class="st0" d="M156.6,64.6v-5.2c0-0.8-0.3-1.3-1.2-1.3c-0.8,0-1.6,0.5-2.3,1.2v5.3h-1.5v-7.7h1.2L153,58
			c0.8-0.6,1.7-1.3,2.8-1.3c1.5,0,2.3,0.9,2.3,2.3v5.6">
   </path>
   <path class="st0" d="M170.6,56.8l0.2,1.3l-1.5,0.1l0.3,1.2c0,1.7-1.5,2.7-3.1,2.7h-0.6l-0.4,0.5c0,0.3,0.3,0.3,1.7,0.6l0.5,0.1
			c1.7,0.3,2.8,0.8,2.8,2c0,1.6-1.8,2.4-3.9,2.4c-2.1,0-3.7-0.6-3.7-2c0-0.8,0.6-1.4,1.7-2l-0.5-0.8c0-0.4,0.3-0.7,0.8-1
			c-0.9-0.4-1.5-1.2-1.5-2.3c0-1.7,1.4-2.7,3.1-2.7c0.8,0,1.5,0.2,2.1,0.7 M164.3,65.5c0,0.6,0.8,1.1,2.4,1.1c1.6,0,2.4-0.5,2.4-1.2
			c0-0.5-0.4-0.8-1.5-1l-0.9-0.2l-1-0.2C164.7,64.5,164.3,64.9,164.3,65.5 M166.5,57.8c-1,0-1.6,0.7-1.6,1.7c0,0.9,0.6,1.6,1.6,1.6
			s1.6-0.7,1.6-1.6C168.1,58.5,167.5,57.8,166.5,57.8">
   </path>
   <path class="st0" d="M175.1,64.8c-2.1,0-3.7-1.5-3.7-4s1.5-4,3.7-4c2.1,0,3.7,1.5,3.7,4C178.8,63.3,177.3,64.8,175.1,64.8
			 M175.1,58c-1.4,0-2.1,1.2-2.1,2.8s0.7,2.8,2.1,2.8c1.5,0,2.2-1.2,2.2-2.8S176.6,58,175.1,58">
   </path>
   <path class="st0" d="M183.7,64.8c-2.1,0-3.7-1.5-3.7-4s1.5-4,3.7-4s3.7,1.5,3.7,4C187.5,63.3,185.9,64.8,183.7,64.8 M183.7,58
			c-1.4,0-2.2,1.2-2.2,2.8s0.8,2.8,2.2,2.8c1.5,0,2.2-1.2,2.2-2.8C186,59.2,185.2,58,183.7,58">
   </path>
   <path class="st0" d="M194.6,64.6l-0.2-1.1c-0.6,0.7-1.4,1.3-2.6,1.3c-1.7,0-3.1-1.2-3.1-3.8c0-2.8,1.7-4.2,3.6-4.2
			c0.8,0,1.5,0.1,2,0.3v-4l1.5-0.2v11.6 M194.3,58.5c-0.6-0.3-1.1-0.4-2-0.4c-1.2,0-2.2,1-2.2,2.9c0,1.7,0.8,2.6,1.9,2.6
			c0.9,0,1.6-0.5,2.3-1.4V58.5z">
   </path>
   <path class="st0" d="M206.5,64.6v-5.2c0-0.8-0.4-1.3-1.2-1.3s-1.6,0.5-2.3,1.2v5.3h-1.5V53.2L203,53v5c0.7-0.5,1.6-1.2,2.7-1.2
			c1.5,0,2.3,0.9,2.3,2.3v5.6">
   </path>
   <path class="st0" d="M214.9,64.6l-0.2-1c-0.6,0.6-1.5,1.2-2.8,1.2c-1.4,0-2.4-0.8-2.4-2.1c0-1.9,1.7-2.7,5.1-3v-0.3
			c0-1-0.6-1.3-1.5-1.3c-1,0-1.9,0.3-2.8,0.7l-0.2-1.2c0.9-0.4,1.8-0.7,3.1-0.7c1.9,0,2.9,0.8,2.9,2.5v5.4 M214.6,60.7
			c-2.9,0.3-3.6,1-3.6,1.8c0,0.6,0.4,1,1.2,1c0.9,0,1.7-0.4,2.4-1.1L214.6,60.7L214.6,60.7z">
   </path>
   <path class="st0" d="M223.2,64.6v-5.2c0-0.8-0.4-1.3-1.2-1.3s-1.6,0.5-2.3,1.2v5.3h-1.5v-7.7h1.2l0.2,1.1c0.8-0.6,1.7-1.3,2.8-1.3
			c1.5,0,2.3,0.9,2.3,2.3v5.6">
   </path>
   <path class="st0" d="M232.3,64.6l-0.2-1.1c-0.6,0.7-1.4,1.3-2.6,1.3c-1.7,0-3.1-1.2-3.1-3.8c0-2.8,1.7-4.2,3.6-4.2
			c0.8,0,1.5,0.1,2,0.3v-4l1.5-0.2v11.6 M232,58.5c-0.6-0.3-1.1-0.4-1.9-0.4c-1.3,0-2.2,1-2.2,2.9c0,1.7,0.8,2.6,1.9,2.6
			c0.9,0,1.6-0.5,2.3-1.4v-3.7H232z">
   </path>
   <path class="st0" d="M238,64.8c-1.1,0-2.2-0.3-2.9-0.7l0.2-1.4c0.8,0.5,1.7,0.9,2.8,0.9c1,0,1.6-0.4,1.6-1c0-0.7-0.5-1-1.9-1.3
			c-1.9-0.4-2.6-1-2.6-2.4c0-1.2,1.1-2.1,2.8-2.1c1,0,1.9,0.2,2.6,0.5l-0.2,1.3c-0.7-0.4-1.6-0.7-2.4-0.7c-0.9,0-1.4,0.3-1.4,0.9
			c0,0.5,0.4,0.8,1.7,1.1c2,0.5,2.9,1,2.9,2.5C241.2,63.9,240.1,64.8,238,64.8">
   </path>
   <rect x="242.9" y="62.7" class="st0" width="1.7" height="1.9">
   </rect>
   <path class="st0" d="M36.1,0C16.2,0,0,11.9,0,26.4C0,41,16.2,53.8,36.1,53.8S72.3,41,72.3,26.4C72.3,11.9,56.1,0,36.1,0 M36.1,52
			C18.9,52,4.9,40.1,4.9,26.5s14-24.7,31.3-24.7s31.3,11.1,31.3,24.7C67.4,40.1,53.4,52,36.1,52">
   </path>
   <path class="st0" d="M29.2,37.8l0.6,0.6c1,0.4,4.3,2.5,5.2,2.6l2,0c1.1,0,2.3,0,3.2,0.4c0.9,0.5,0.6,1.3,0.6,1.3s1-0.7,0.8-1.5
			c-0.1-0.7-0.9-1.5-3.7-1.7c-0.9-0.1-2.2,0.1-2.2,0.1h-0.1c-5.9-3.9-2.9,0.1-7.2-6.1l-0.6-0.8c0,0,0.6-0.8,0.5-1.6l-0.5,0.5
			c-0.4,0.3-1.6,0.8-2.3,1l-0.3,0.1l2.8,3.5 M33.8,35.9l0.2,0.2l1.2,0.5c0.8,0.3,1.8,0.8,2.3,1.1l1.3,0.7c0.1,0,1.5-0.1,2.4,0
			c1.1,0.1,2,0.5,2.4,1.1c0.6,0.8-0.1,1.7-0.1,1.7c0.2-0.1,1.4-0.9,1.3-2.1c-0.1-1.2-1.1-2.3-5.1-2.3l-1.1-0.6L38.3,36l-1.8-0.9
			l-1.4-0.5l0,0L34.8,34c-0.5-0.8-1.1-1.6-1.7-2.3l-0.1,0l-1-1.5c0.3-0.6,0-1.6,0-1.6l-0.4,0.6c-0.3,0.3-1,0.9-1.5,1.1l-0.3,0.2
			l3.6,4.7L33.8,35.9z M35.4,27.4c0.2-0.8-0.2-1.5-0.2-1.5L35,26.4c-0.2,0.4-0.7,0.9-1.4,1.4l-0.2,0.1l2.9,4l0.2,0.3l0.5,0.7
			l1.2,0.7l0.4,0.2l1.3,0.8l1.2,0.8h0.1l1.8,0.1c1.1,0.1,1.7,0.5,2,0.7c1.1,0.8,0.5,2,0.5,2s1.5-1.4,0.5-2.9c-0.4-0.5-0.9-1-2.4-1.2
			l-1.8-0.2l-1-0.7l-1.3-0.8l-0.3-0.2l-1.1-0.5L35.4,27.4z M23.4,3.7l0.4,0.4l1.5,1.3l0.8,0.8c0.6,0.6,0.8,0.9,0.7,1l-0.3,0.2
			l-0.3,0.1V8h0.3c1.9,0,3.7,1.2,4.9,2.3c2,1.9,3.6,4.9,3.9,7.7l1.6,8l0.6,1.2l0.1,0.2l0.3,0.5c0.2,0.5,0.6,1,0.6,1l0.8,0.6l1.1,1.1
			l0.3,0.4l0.5,0.5l1.7,0.2c2.8,0.4,2.7,2,2.7,2s1.7-2.5-2.3-3.4L42,30.1l0,0l-0.5-0.6l-0.1-0.2l-1.2-1.2l-0.6-0.5l-0.5-1.3
			l-0.7-1.6c-0.2-0.5-0.3-1.3-0.5-2.4l0.1-0.7l-0.5-3.4l0.1-0.6c0.2-1.3,0.7-2.6,1.5-4.1c0.9-1.8,2.7-3,2.7-3
			c1.3-0.8,3.3-1.3,4.4-1.5l0.6-0.5V8.4h-0.1c-0.6-0.1-1.3-0.3-1.3-0.4V7.9l0.2-0.5l0.9-0.8L47,6.1l2.4-2.2l-2-0.6l-2.2,2.2
			C43.8,7,42.1,8.7,41.4,9c-1.8,0.7-3.7,2.4-4.4,4.1l-0.5,1.3c-0.6-1.5-1.2-2.8-2.2-3.9c-1-1.2-2.3-2.1-3.9-2.7
			c-0.9-0.8-3.7-3.3-5.2-4.5L23.4,3.7z M30.8,44c-2.6,1.3-4,0.2-3.4-1.1C28.3,43.4,29.6,43.8,30.8,44 M26.4,42.1
			c-1.7,0.5-2.4-0.7-2-1.7L26.4,42.1 M10.7,11.9l0.5,0.3l2.5,2l-0.9,2.5c-0.8,2-1.6,4-1.7,5.6v0.3l0.7,3.6l0.1,0.3
			c0.4,1.9,0.8,4,1,5.5l0.3,0.8c1.1,1.1,2.8,3.3,4.9,7.4l0.1,0.2c0.2,0.6,0.5,1,0.8,1.2c0.4,0.2,1.1,0.2,1.6,0
			c1.1-0.7,1.8-1.7,2.3-2.8l0.7,0.8c-1.8,3.1,1.4,4.2,2.5,3.8c-0.7,1.8,1.8,3.3,4.1,2.3c0.3,1.2,1.3,1.5,2.2,1.7s2.2,0.3,4.3,0.1
			c3.1-0.2,6-1.2,7.1-1.7c2.4-1.2,3.7-2.7,4.5-3.7l0.2-0.3l0.8,1.1c0.8,0.7,1.5,1,2.1,0.9l1-0.8c1.1-2.5,3.4-5.5,5.2-7.6l0.2-0.3
			c0.4-1.5,1.8-5.1,2.6-7l0.5-1.4l0.1-0.3c0-0.6,0.1-1.1,0.1-1.7c0-2.5-0.4-4.9-1.1-6.9c-0.3-1-0.7-1.6-1-2.2l-0.4-0.7
			c0.5-0.7,2-1.7,3.2-2.5l0.1-0.1l-1.5-1.6l-1,0.7c-1.1,0.7-2.2,1-2.9,0.7l-1-0.5l-0.2-0.1H55l-0.3,0.1h-0.2l0.3,0.3
			c0.6,0.7,1,1.3,1.4,2.2l0.3,0.5c0.3,0.7,0.6,1.5,0.9,2.2l0.7,2.4c0.6,2.5,0.9,4.5,0.9,6.3v0.2L58.2,28c-0.9,2.4-2,5.3-2.2,6.5v0.2
			c-2.3,2.3-4,5.1-4.7,6.8l-0.2,0.3l-0.5-0.3c-0.6-0.5-0.9-1.6-0.9-2.7c0.1-1.4,0.7-2.6,1.7-3.4l0.1-0.5c-0.3-1.6,0.2-4,1.2-4.6
			l0.3-0.2l-0.3-0.2c-2.9-2.1-4.3-6.1-4.4-9v-0.4l-0.4,0.2L47.7,21c-0.1,0.6-0.2,1.2-0.2,1.7c0,1.5,0.3,2.8,0.4,3.3
			c0.4,1.6,1.2,3.1,2.5,4.5v0.1c-0.5,0.6-0.8,2.2-0.8,3.4l0.1,1c-1.3,1.1-1.7,2.5-1.8,3.5l0.1,1.1l-0.7,0.8l-0.1,0.2
			c-1.3,1.7-2.2,2.9-4.3,3.9c-2.3,1.2-6.8,2-9.7,1.7c-1.1-0.1-1-1-1-1.1l0.1-0.4l0.3-0.3c2.7,0.3,5.4,0,6.5-0.6l0.4-0.5l0.1-0.2
			L39.3,43c-2.3,0.6-7-0.2-9.5-1.2c-2.7-1.1-3.6-2.2-5.8-5L23.4,36c0-0.8-0.2-1.6-0.6-2.3s-0.9-1-1-1.2c0.2-0.5,0.3-1.1,0.3-1.8
			c0-1-0.2-1.9-0.5-2.5c1.7-1.2,2.5-2.5,2.5-4c0-0.7-0.4-1.8-0.4-1.8l-0.6-0.3v0.4c0.3,2.5-2.2,4.1-3.8,5.2L18.8,28l0.3,0.2
			c1.3,0.8,1.3,3.3,1,4.7V33l0.1,0.1h0.1l0.6,0.5c1.3,1.6,1.2,4.2-0.2,5.7L20,39.7L19.6,39l-0.4-0.8c-1.1-2.2-2-4-4.1-6.5L15,31.6
			c-0.4-3.2-0.9-5.6-1.4-7.9l-0.3-1.2v-0.3c0.1-2.4,0.9-4.3,1.8-6.6l0.6-1.4l0.5-1.1l0.1-0.2c0.5-0.7,1.3-1.4,2.1-2.1l0.4-0.3
			l-0.5-0.2c0,0-1,0.1-2,0.6L16.1,11c-0.7,0.3-1.6,0.6-2.2,0.3l-1.8-1L10.7,11.9z">
   </path>
  </g>
 </g>
</svg>