<svg version="1.1" id="Layer_1" xmlns="http://www.w3.org/2000/svg" xmlns:xlink="http://www.w3.org/1999/xlink" x="0px" y="0px" viewBox="0 0 140 140" style="enable-background:new 0 0 140 140;" xml:space="preserve">
 <style type="text/css">
  .st0{fill:#DC0C23;}
 </style>
 <g>
  <path class="st0" d="M0,70C0,30.9,32.2-0.7,71.3,0c37.9,0.7,69.4,32,68.7,71.2C139.4,109,108.6,140,70,140C31,140,0,108.3,0,70z
		 M6.9,70C7,104.8,35,132.7,69.2,133.1c35,0.4,63.7-27.7,63.9-62.7c0.2-35-28-63.3-62.5-63.5C35.3,6.6,6.9,35.2,6.9,70z">
  </path>
  <path class="st0" d="M125.2,128.2c-1.6,0-2.8-1.2-2.8-2.8c0-1.6,1.2-2.8,2.8-2.8c1.6,0,2.8,1.2,2.8,2.8S126.7,128.2,125.2,128.2z
		 M125.1,123c-1.3,0-2.4,1.1-2.4,2.4s1.1,2.4,2.4,2.4s2.4-1.1,2.4-2.4C127.6,124.1,126.5,123,125.1,123z">
  </path>
  <path class="st0" d="M27.7,63.1c0-0.3,0-0.5,0-0.6c0-1.7,0-3.4,0-5.1c0-1.8,1.2-3.2,2.9-3.4c0.9-0.1,1.9,0,2.9,0
		c0,9.3,0,18.6,0,27.9c-1.9,0-3.7,0-5.6,0c0-0.7,0-1.3,0-1.9c-0.1,0.1-0.2,0.1-0.2,0.1c-1.8,2-4.1,2.5-6.6,2.3
		c-4.6-0.3-8-3.9-8.8-8.4c-0.5-3.1-0.1-6,1.8-8.6c3.2-4.3,8.5-4.8,12.4-2.9C26.9,62.6,27.2,62.8,27.7,63.1z M22.9,76.8
		c3,0,5.1-2.2,5.1-5.1s-2.1-5-5-5s-5.1,2.1-5.1,5C17.9,74.7,20,76.8,22.9,76.8z">
  </path>
  <path class="st0" d="M56.1,73.6c-4.9,0-9.8,0-14.8,0c0.1,1,0.6,1.9,1.3,2.5c1.6,1.5,4.6,1.8,6.2,0.2c0.6-0.6,1.4-0.8,2.2-0.8
		c1.5,0,3,0,4.6,0c-0.8,1.8-1.9,3.4-3.4,4.6c-2.3,1.8-4.9,2.5-7.8,2.1c-5.8-0.8-9.9-6.6-8.8-12.3c1.2-6.1,6.9-9.9,12.8-8.4
		C54.8,63.1,56.9,69.5,56.1,73.6z M41.4,69.6c3,0,6,0,8.9,0c-0.3-2-2.3-3.5-4.6-3.4C43.5,66.2,41.6,67.7,41.4,69.6z">
  </path>
  <path class="st0" d="M127.7,73.6c-5,0-9.9,0-15,0c0.3,0.7,0.5,1.3,0.8,1.8c1.4,2.2,4.8,2.8,6.8,1.1c0.7-0.6,1.5-0.9,2.5-0.9
		c1.3,0,2.5,0,3.8,0c0.2,0,0.4,0,0.6,0c-0.9,2-2,3.6-3.7,4.8c-2.3,1.7-4.9,2.4-7.7,1.9c-6.2-1.1-10-7-8.5-13s7.6-9.4,13.4-7.5
		c2.8,0.9,4.8,2.8,6.1,5.5C127.7,69.2,128,71.3,127.7,73.6z M121.9,69.6c-0.3-2.1-2.4-3.6-4.8-3.4c-2.1,0.1-4.1,1.7-4.2,3.4
		C115.9,69.6,118.9,69.6,121.9,69.6z">
  </path>
  <path class="st0" d="M85.1,61.9c0,6.6,0,13.2,0,19.8c-1.8,0-3.6,0-5.5,0c0-0.7,0-1.3,0-2c-0.1,0-0.1-0.1-0.2-0.1
		c0,0.1,0,0.1-0.1,0.2c-0.9,1.7-2.4,2.4-4.3,2.5c-1.2,0.1-2.4,0-3.6-0.4c-2.8-1-4.5-3.1-4.7-6.1c-0.2-3.6-0.1-7.2-0.1-10.7
		c0-1.6,1.3-3,2.9-3.1c1-0.1,1.9,0,3,0c0,0.2,0,0.4,0,0.6c0,3.6,0,7.1,0,10.7c0,0.6,0.1,1.3,0.3,1.9c0.3,0.9,0.9,1.4,1.8,1.6
		c2.5,0.7,4.4-0.8,4.5-3.6c0.1-2.6,0-5.1,0-7.7c0-2.1,1.4-3.5,3.5-3.5C83.6,61.9,84.3,61.9,85.1,61.9z">
  </path>
  <path class="st0" d="M97.6,66.8c0.9-1.2,1.7-2.2,2.4-3.3c0.8-1.1,1.8-1.6,3.1-1.6c1.4,0,2.8,0,4.2,0c0.2,0,0.4,0,0.7,0
		c-2.3,3.1-4.4,6.1-6.7,9.2c2.5,3.5,5.1,7,7.7,10.6c-2.5,0-4.8,0-7.2,0c-1.3-2-2.6-4-3.9-6.1c-0.2,0.3-0.4,0.5-0.5,0.8
		c-0.8,1.3-1.7,2.5-2.5,3.8c-0.7,1-1.6,1.6-2.8,1.6c-1.7,0-3.5,0-5.4,0c2.6-3.5,5.1-7,7.7-10.5c-2.3-3.1-4.5-6.2-6.8-9.3
		c2.4,0,4.7,0,7.1,0C95.6,63.5,96.6,65.1,97.6,66.8z">
  </path>
  <path class="st0" d="M64.1,53.9c0,9.3,0,18.5,0,27.8c-1.9,0-3.8,0-5.8,0c0-0.2,0-0.3,0-0.5c0-7.9,0-15.9,0-23.8
		c0-1.8,1.2-3.2,3-3.4C62.2,53.8,63.1,53.9,64.1,53.9z">
  </path>
  <path class="st0" d="M125.6,125.6c0.3,0.4,0.6,0.8,0.9,1.3c-0.2,0-0.4,0-0.5,0c-0.5-0.5-0.5-1.4-1.5-1.3c0,0.4,0,0.8,0,1.2
		c-0.2,0-0.3,0-0.5,0c0-1,0-2,0-3c0.4,0,0.8,0,1.2,0c0.7,0,1,0.2,1.1,0.6C126.3,125,126.1,125.3,125.6,125.6z M124.4,125.2
		c0.3,0,0.7,0,1,0c0.2,0,0.3-0.3,0.4-0.4c0-0.1-0.2-0.4-0.3-0.4c-0.3-0.1-0.6-0.1-1-0.1C124.4,124.7,124.4,124.9,124.4,125.2z">
  </path>
 </g>
</svg>