<?xml version="1.0" encoding="UTF-8" standalone="no"?>
<!DOCTYPE svg PUBLIC "-//W3C//DTD SVG 1.1//EN" "http://www.w3.org/Graphics/SVG/1.1/DTD/svg11.dtd">
<svg width="100%" height="100%" viewBox="0 0 652 200" version="1.1" xmlns="http://www.w3.org/2000/svg" xmlns:xlink="http://www.w3.org/1999/xlink" xml:space="preserve" xmlns:serif="http://www.serif.com/" style="fill-rule:evenodd;clip-rule:evenodd;stroke-linejoin:round;stroke-miterlimit:2;">
    <g transform="matrix(1.04179,0,0,1.02976,-13.4418,-233.706)">
        <g transform="matrix(0.959891,0,0,0.9711,10.5414,9.52209)">
            <path d="M63.7,266C76.3,266 77.3,279.8 77.3,289.4C77.3,299.2 76,311.7 63.5,311.7C50.8,311.7 49.7,298.5 49.7,288.8C49.7,278.9 51.4,266.3 63.7,266L62.9,250.9C53.3,250.9 43.1,254.7 37.1,262.6C31.8,269.7 29.8,279.9 29.8,288.6C29.8,297.8 32.1,309.2 38,316.3C44.5,324.2 54.1,326.8 63.8,326.8C73.6,326.8 83.8,323.1 89.8,315C95.1,307.9 97.2,297.5 97.2,288.6C97.2,279.2 94.6,268.5 88.5,261.2C82,253.3 72.7,250.8 62.9,250.8L63.7,266Z" style="fill:rgb(233,52,52);fill-rule:nonzero;"/>
        </g>
        <g transform="matrix(0.959891,0,0,0.9711,10.5414,9.52209)">
            <path d="M129.9,305.6C129.9,307 129.5,313 131.8,313C132.8,313 133.9,312.3 135.2,312.3C138.6,312.3 139.8,315.1 139.8,318.3C139.8,322.3 138,325.6 133.7,325.6C129.2,325.5 125.1,324.5 120.9,324.5C117,324.5 113,325.4 109.6,325.6C105.7,325.6 103.9,322.3 103.9,318.3C103.9,315.2 105,312.3 108.4,312.3C109.7,312.3 110.8,313 111.8,313C114.1,313 113.7,307 113.7,305.6L113.7,286.4C113.7,282.7 113.9,282.3 110.2,282.3C106.2,282.3 103.9,281.4 103.9,276.7C103.9,272.4 105.4,270.5 109.7,270.5C112.9,270.5 113.7,270.8 113.8,267C114.2,255.6 123.9,250.8 134.2,250.8C137.6,250.8 141.9,251.4 144.9,253C148.4,254.9 151.1,258.3 151.1,262.3C151.1,266.9 148,270.5 143.3,270.5C139.9,270.5 136.3,268.1 136.3,264.3C136.3,263.1 136.6,262.5 137.2,261.5C136.5,261.2 136,261.1 135.1,261.1C131.3,261.1 129.9,263.4 129.9,267.1C129.9,270.5 130.1,270.5 133.4,270.5C137.7,270.5 140.8,270.7 140.8,276.2C140.8,281 138.8,282.3 134.3,282.3C130,282.3 130,282.1 130,286.4L130,305.6L129.9,305.6Z" style="fill:rgb(233,52,52);fill-rule:nonzero;"/>
        </g>
        <g transform="matrix(0.959891,0,0,0.9711,10.5414,9.52209)">
            <path d="M179.3,305.6C179.3,307 178.9,313 181.2,313C182.2,313 183.3,312.3 184.6,312.3C188,312.3 189.2,315.1 189.2,318.3C189.2,322.3 187.4,325.6 183.1,325.6C178.6,325.5 174.5,324.5 170.3,324.5C166.4,324.5 162.4,325.4 159,325.6C155.1,325.6 153.3,322.3 153.3,318.3C153.3,315.2 154.4,312.3 157.8,312.3C159.1,312.3 160.2,313 161.2,313C163.5,313 163.1,307 163.1,305.6L163.1,286.4C163.1,282.7 163.3,282.3 159.6,282.3C155.6,282.3 153.3,281.4 153.3,276.7C153.3,272.4 154.8,270.5 159.1,270.5C162.3,270.5 163.1,270.8 163.2,267C163.6,255.6 173.3,250.8 183.6,250.8C187,250.8 191.3,251.4 194.3,253C197.8,254.9 200.5,258.3 200.5,262.3C200.5,266.9 197.4,270.5 192.7,270.5C189.3,270.5 185.7,268.1 185.7,264.3C185.7,263.1 186,262.5 186.6,261.5C185.9,261.2 185.4,261.1 184.5,261.1C180.7,261.1 179.3,263.4 179.3,267.1C179.3,270.5 179.5,270.5 182.8,270.5C187.1,270.5 190.2,270.7 190.2,276.2C190.2,281 188.2,282.3 183.7,282.3C179.4,282.3 179.4,282.1 179.4,286.4L179.4,305.6L179.3,305.6Z" style="fill:rgb(233,52,52);fill-rule:nonzero;"/>
        </g>
        <g transform="matrix(0.959891,0,0,0.9711,10.5414,9.52209)">
            <path d="M229.9,305.6C229.8,307 229.4,313 231.7,313C232.7,313 233.8,312.3 235.1,312.3C238.5,312.3 239.7,315.1 239.7,318.3C239.7,322.3 237.9,325.6 233.6,325.6C229.2,325.5 225,324.5 220.8,324.5C216.9,324.5 212.9,325.4 209.2,325.6C204.9,325.6 203.1,322.3 203.1,318.3C203.1,315.2 204.2,312.3 207.6,312.3C208.9,312.3 210,313 211,313C213.3,313 212.9,307 212.9,305.6L212.9,290.5C212.9,289.1 213.3,283.2 211,283.2C210,283.2 208.9,283.9 207.6,283.9C204.2,283.9 203.1,281.1 203.1,277.9C203.1,273.9 204.9,270.7 209.3,270.7C212.2,270.7 215,271.8 217.8,271.8C220.9,271.8 223.9,270.7 226.9,270.7C230,270.7 230,273.6 230,276.1L230,305.6L229.9,305.6Z" style="fill:rgb(233,52,52);fill-rule:nonzero;"/>
        </g>
        <g transform="matrix(0.959891,0,0,0.9711,10.5414,9.52209)">
            <path d="M230.4,256.5C230.4,262 226,266.4 220.7,266.4C215.3,266.4 211,262 211,256.5C211,251 215.3,246.6 220.7,246.6C226,246.7 230.4,251.1 230.4,256.5" style="fill:rgb(233,52,52);fill-rule:nonzero;"/>
        </g>
        <g transform="matrix(0.959891,0,0,0.9711,10.5414,9.52209)">
            <path d="M269.5,282.8C261.6,282.8 258.8,291 258.8,297.5C258.8,300.9 259.5,305.2 261.5,308C263.4,310.7 267,312.6 270.4,312.6C275.3,312.6 276.9,310 278.6,306C279.3,304.2 279.6,303.1 281.3,302C282.7,301.1 284.4,300.7 286,300.7C290.6,300.7 294.3,303.6 294.3,308.5C294.3,313.5 291.2,318.2 287.3,321.2C282.4,325.2 276.1,326.8 269.8,326.8C262.2,326.8 254.9,324.8 249.4,319.3C244,313.9 241.3,305.7 241.3,298.2C241.3,280.3 252.4,269 270.6,269C280.5,269 292.9,273.6 292.9,285.3C292.9,290.9 288.3,294.5 282.9,294.5C278.5,294.5 274.4,292.5 274.4,287.7C274.4,286.3 274.7,285.6 275.5,284.5C273.5,283.2 271.9,282.8 269.5,282.8" style="fill:rgb(233,52,52);fill-rule:nonzero;"/>
        </g>
        <g transform="matrix(0.959891,0,0,0.9711,10.5414,9.52209)">
            <path d="M347.6,300.8C354,300.8 354.6,299.2 354.6,293C354.6,286.4 351.9,279.2 346.9,274.7C342.1,270.3 335.3,268.9 328.9,268.9C311.4,268.9 301,281.5 301,298.1C301,315.1 311.9,326.7 329.4,326.7C335.3,326.7 341.4,325.5 346.4,322.5C350.2,320.2 353.8,316.4 353.8,311.8C353.8,307.6 350.6,305.2 346.4,305.2C338.1,305.2 338.7,313.5 329.7,313.5C323.5,313.5 318.7,309 318.7,303C318.7,300.2 321.4,300.8 323.5,300.8L323.7,289.1C322.5,289.1 319.2,289.6 319.2,287.6C319.2,286.2 320.9,284.6 321.9,283.6C323.9,281.4 326.3,280.8 329.2,280.8C331.3,280.8 333.4,281.4 335,282.8C336.2,283.9 337.2,285.7 337.2,287.3C337.2,289.6 335.2,289.1 333.5,289.1L323.8,289.1L323.6,300.8L347.6,300.8Z" style="fill:rgb(233,52,52);fill-rule:nonzero;"/>
        </g>
        <g transform="matrix(0.959891,0,0,0.9711,10.5414,9.52209)">
            <path d="M419.4,324.3C421.8,324.3 423.3,324.3 424.8,322.2C426.1,320.3 426.8,318.4 427.4,316.2L443.1,265.3L443.1,302.6C443.1,304.6 443.4,311.1 441.2,311.1C440.1,311.1 439,310.4 438,310.4C435.6,310.4 433.3,314.3 433.3,317.4C433.3,321.9 436.1,325.4 440.1,325.4C444.6,325.4 449,324.3 453.6,324.3C457.2,324.3 461.7,325.4 466.1,325.4C470.8,325.4 473.4,321.9 473.4,317.4C473.4,314.3 471.5,310.4 468,310.4C466.5,310.4 465,311.1 463.3,311.1C460.2,311.1 460.7,304.6 460.7,302.6L460.7,275.1C460.7,273.1 460.2,266.6 463.3,266.6C465,266.6 466.4,267.3 468,267.3C471.5,267.3 473.4,263.4 473.4,260.3C473.4,255.8 470.8,252.3 466.1,252.3C460.8,252.3 455.6,253.3 451.9,253.3C446.6,253.3 439.7,252.3 434.4,252.3C428.5,252.2 427.5,257.9 426.9,259.9L416.7,295.8L406.4,260C405.8,257.9 404.8,252.3 398.9,252.4C393.6,252.4 386.7,253.4 381.4,253.4C377.7,253.4 372.5,252.4 367.2,252.4C362.5,252.4 360,255.9 360,260.4C360,263.6 361.9,267.4 365.4,267.4C367,267.4 368.4,266.7 370.1,266.7C373.2,266.7 372.7,273.2 372.7,275.2L372.7,302.7C372.7,304.7 373.2,311.2 370.1,311.2C368.4,311.2 367,310.5 365.4,310.5C361.9,310.5 360,314.4 360,317.5C360,322 362.6,325.5 367.2,325.5C371.6,325.5 376.1,324.4 379.7,324.4C384.3,324.4 388.7,325.5 393.2,325.5C397.1,325.5 400,322 400,317.5C400,314.4 397.7,310.5 395.3,310.5C394.3,310.5 393.2,311.2 392.1,311.2C389.9,311.2 390.2,304.7 390.2,302.7L390.2,265.4L405.9,316.3C406.5,318.5 407.1,320.4 408.5,322.3C409.9,324.4 411.5,324.4 413.9,324.4L419.4,324.4L419.4,324.3Z" style="fill:rgb(233,52,52);fill-rule:nonzero;"/>
        </g>
        <g transform="matrix(0.959891,0,0,0.9711,10.5414,9.52209)">
            <path d="M524.5,288.4C524.5,281.9 524,275.9 517.9,272.2C513.3,269.6 506.3,269 501.1,269C493.2,269 478.5,270.8 478.5,281.6C478.5,287 482.9,290.6 488,290.6C492.3,290.6 496.9,288.4 496.9,283.6L496.9,281.7C496.9,279.6 498.6,279.3 500.3,279.3C503.7,279.3 507.3,281.2 507.3,285.2C507.3,299.1 475.2,286.1 475.2,311C475.2,321.7 484.2,326.8 493.6,326.8C500.1,326.8 506.4,324.8 511.3,320.1C513.1,325 518.3,326.8 523.1,326.8C528,326.8 533.8,324.6 533.8,318.7C533.8,315.7 531.9,312.8 528.6,312.8C527.8,312.8 526.9,312.9 526.1,312.9C524,312.9 524.3,309.4 524.3,308.1L507.2,303.7C507.2,309.9 504.2,313.6 498.1,313.6C495.1,313.6 492.2,312.3 492.2,308.7C492.2,303.1 504.2,304.7 507.2,301.5L507.2,303.8L524.3,308.2L524.3,288.4L524.5,288.4Z" style="fill:rgb(233,52,52);fill-rule:nonzero;"/>
        </g>
        <g transform="matrix(0.959891,0,0,0.9711,10.5414,9.52209)">
            <path d="M549.3,287.6C548.4,286.2 546.2,283.1 544.6,283.1C543.7,283.1 542.6,283.5 541.7,283.8C538.7,283.8 537.7,281 537.7,277.8C537.7,273.8 539.2,270.6 543.2,270.6C545.8,270.7 548.6,271.6 551.4,271.6C554.5,271.6 557.5,270.7 560.7,270.6C564,270.6 566.1,272.8 566.1,276.6C566.1,280.2 563.4,280.4 563.4,282.1C563.4,283.6 565.8,287.5 566.4,288.5L567.9,291.2L569.4,288.5C570,287.4 572.2,284.3 572.2,282.8C572.2,280.7 568.8,282 568.8,276.8C568.8,272.9 570.6,270.6 573.1,270.6C575.7,270.7 578.5,271.6 581.3,271.6C584.4,271.6 587.4,270.7 590.6,270.6C594.3,270.6 595.9,273.8 595.9,277.8C595.9,280.9 595,283.8 592,283.8C591,283.3 589.9,283 589,283C587.4,283 587,284.2 586.2,285.5L579.2,296.5L586.2,308.5C587,309.8 588.6,312.5 590,312.5C590.7,312.5 591.7,312.1 592.6,312.2C595.6,312.2 596.5,315 596.5,318.2C596.5,322.2 595,325.4 591.2,325.4C588,325.3 585,324.4 581.9,324.4C579.1,324.4 576.3,325.3 573.7,325.4C570.6,325.2 568.3,322.4 568.3,318.8C568.3,317 568.7,316.4 569.9,315.3C570.5,314.8 571.8,313.8 571.8,312.8C571.8,311.5 569.5,307.8 568.9,306.8L567.4,304.1L564.4,309C563.8,310 562.3,312 562.3,313.2C562.3,315.7 565.8,314.4 565.8,318.7C565.8,322.8 563.4,325.1 560,325.4C556.8,325.3 553.8,324.4 550.7,324.4C547.9,324.4 545.1,325.3 542.5,325.4C538.9,325.4 537.3,322.2 537.3,318.2C537.3,315.1 538.2,312.2 541.2,312.2C542.3,312.2 543.4,312.6 544.5,312.6C546.3,312.6 547.5,310.4 548.4,308.8L550.2,306.2L555.8,297.2L549.3,287.6Z" style="fill:rgb(233,52,52);fill-rule:nonzero;"/>
        </g>
        <g transform="matrix(0.959891,0,0,0.9711,10.5414,9.52209)">
            <path d="M612.9,350.7C588.6,344.2 519.3,329 403.6,329.7C302.1,330.3 135.7,350.7 29.2,398.5C22.8,402.9 27.7,407.8 34.2,405C102.8,376 255.2,346.9 296.6,348.3C303.4,348.1 309.9,346.2 320.7,345.6C445,338.3 550.1,353.6 610.1,368.1C620.8,371 619.3,355.1 612.9,350.7" style="fill:rgb(233,52,52);fill-rule:nonzero;"/>
        </g>
        <g transform="matrix(0.959891,0,0,0.9711,10.5414,9.52209)">
            <path d="M615.4,260.5C620.3,260.5 624.2,264.5 624.2,269.7C624.2,275 620.4,279 615.4,279C610.4,279 606.6,275 606.6,269.7C606.6,264.5 610.4,260.5 615.4,260.5L615.4,258.9C609.5,258.9 604.6,263.6 604.6,269.7C604.6,275.9 609.5,280.6 615.4,280.6C621.2,280.6 626.1,275.9 626.1,269.7C626.1,263.6 621.2,258.9 615.4,258.9L615.4,260.5Z" style="fill:rgb(233,52,52);fill-rule:nonzero;"/>
        </g>
        <g transform="matrix(0.959891,0,0,0.9711,10.5414,9.52209)">
            <path d="M613.2,265L615.8,265C617.1,265 618.6,265.3 618.6,266.9C618.6,268.9 617,269 615.3,269L613.3,269L613.3,270.6L615.4,270.6L618.8,276.1L620.9,276.1L617.3,270.5C619.2,270.3 620.6,269.3 620.6,267.1C620.6,264.7 619.2,263.5 616.2,263.5L611.4,263.5L611.4,276L613.3,276L613.3,265L613.2,265Z" style="fill:rgb(233,52,52);fill-rule:nonzero;"/>
        </g>
    </g>
</svg>
