<svg version="1.1" id="Layer_1" xmlns="http://www.w3.org/2000/svg" xmlns:xlink="http://www.w3.org/1999/xlink" x="0px" y="0px" viewBox="0 0 347.4 178" style="enable-background:new 0 0 347.4 178;" xml:space="preserve">
 <style type="text/css">
  .st0{fill:#F5B21E;}
	.st1{fill-rule:evenodd;clip-rule:evenodd;}
 </style>
 <g>
  <path class="st0" d="M61.4,174.3c0.1-4.8-1.4-9.4-4.4-13.2c-4-4.9-10.1-7.9-16.4-7.9c-3.9,0-7.5,1.1-10.7,3.2
		c-16-10.7-25.6-28.6-26.3-49.4c-0.7-20.9,8.1-40.6,23-52.2c3.3,2,6.9,3,10.7,3c6.8,0,13.3-3.3,17.5-8.8c3.1-4.1,4.5-9,4.2-14
		c13.3-0.2,30.3-6.7,46.5-13.3c2.2-0.9,4.3-1.8,6.4-2.6c20-8.3,37.2-15.4,61.8-15.4s41.8,7.1,61.8,15.4c2.1,0.9,4.2,1.8,6.4,2.6
		c16.2,6.6,33.2,13.1,46.5,13.3c-0.3,5,1.1,9.9,4.2,14c4.2,5.5,10.7,8.8,17.5,8.8c3.8,0,7.4-1,10.7-3c14.9,11.6,23.6,31.3,23,52.2
		c-0.7,20.8-10.2,38.7-26.3,49.5c-3.2-2.1-6.8-3.2-10.7-3.2c-6.3,0-12.4,2.9-16.4,7.9c-3,3.8-4.5,8.3-4.4,13.2L61.4,174.3
		L61.4,174.3L61.4,174.3z">
  </path>
  <path d="M280.3,158.9c0,2.4-1.9,4.2-4.2,4.2c-2.3,0-4.2-1.9-4.2-4.2s1.9-4.2,4.2-4.2C278.4,154.7,280.3,156.6,280.3,158.9z
		 M272.5,158.9c0,2,1.6,3.6,3.6,3.6s3.6-1.6,3.6-3.6s-1.6-3.6-3.6-3.6C274.1,155.4,272.5,157,272.5,158.9z M275.3,161.4h-0.8v-4.9
		h1.9c0.9,0,1.4,0.6,1.4,1.2s-0.4,1-1.1,1.1c0.6,0.1,0.8,0.3,0.9,1.2c0,0.2,0.1,1,0.2,1.3H277c-0.2-0.3-0.1-1-0.2-1.6
		c-0.1-0.5-0.5-0.5-0.7-0.5h-0.8V161.4z M275.3,158.6h1c0.5,0,0.7-0.4,0.7-0.8c0-0.3-0.2-0.7-0.7-0.7h-1V158.6z M80.3,155
		c-1.5-0.7-2.7-1.9-2.7-3.8c0-2.3,1.7-4.2,4.5-4.2c1.3,0,2.2,0.4,2.9,0.7v3.4c-0.5-0.4-1.4-1.3-2.6-1.3c-0.8,0-1.5,0.6-1.5,1.2
		c0,0.9,1,1.3,1.7,1.7c1.2,0.5,3.2,1.4,3.2,4.1c0,2.6-2.1,4.8-4.9,4.8c-1.6,0-2.9-0.7-3.4-1v-3.5c0.6,0.5,1.7,1.5,3.1,1.5
		c1,0,1.8-0.7,1.8-1.6c0-0.9-0.7-1.4-1.8-1.9L80.3,155L80.3,155z M98.7,147.2l3.7,14.1h-3.6l-0.5-2.8h-2.7l-0.5,2.8h-3.4l3.7-14.1
		H98.7z M97,151.1l-0.9,4.9h1.8L97,151.1z M114.9,155v-7.8h3.2v14.1h-3.3l-2.8-7.8l0.1,7.8h-3.2v-14.1h3.3
		C112.2,147.2,114.9,155,114.9,155z M129.3,147.2c4.1,0,5.3,3.2,5.3,6.9c0,2.5-0.7,7.2-5.8,7.2h-3.7v-14.1L129.3,147.2L129.3,147.2z
		 M128.5,150v8.6c1.2,0,2.8-0.3,2.8-4.6c0-1.5-0.3-4-2.3-4H128.5z M149.2,156.6l1-9.3h3.3l-2.6,14.1h-3.3l-0.9-8.5l-0.9,8.5h-3.3
		l-2.6-14.1h3.4l1,9.3l0.8-9.3h3.3L149.2,156.6z M163.4,147.2v14.1h-3.3v-14.1H163.4z M177.6,150.8c-0.5-0.5-1-0.8-1.7-0.8
		c-2.5,0-2.5,4-2.5,4.5c0,2.4,0.9,4.1,2.4,4.1c0.7,0,1.3-0.4,1.8-0.7v3.2c-0.5,0.2-1.3,0.6-2.3,0.6c-3.2,0-5.2-3.2-5.2-7.2
		c0-4.1,2-7.3,5.4-7.3c0.9,0,1.5,0.2,2.2,0.5L177.6,150.8L177.6,150.8L177.6,150.8z M188.2,147.2v5.5h2.6v-5.5h3.3v14.1h-3.3v-5.9
		h-2.6v5.9h-3.3v-14.1H188.2z M212.9,155c-1.5-0.7-2.7-1.9-2.7-3.8c0-2.3,1.7-4.2,4.5-4.2c1.3,0,2.2,0.4,2.9,0.7v3.4
		c-0.5-0.4-1.4-1.3-2.6-1.3c-0.8,0-1.5,0.6-1.5,1.2c0,0.9,1,1.3,1.7,1.7c1.2,0.5,3.2,1.4,3.2,4.1c0,2.6-2.1,4.8-4.9,4.8
		c-1.6,0-2.9-0.7-3.4-1v-3.5c0.6,0.5,1.7,1.5,3.1,1.5c1,0,1.8-0.7,1.8-1.6c0-0.9-0.7-1.4-1.8-1.9L212.9,155L212.9,155z M228.7,147.2
		v5.5h2.6v-5.5h3.3v14.1h-3.3v-5.9h-2.6v5.9h-3.3v-14.1H228.7z M251.9,154.2c0,4.2-2,7.4-5.3,7.4c-3.5,0-5.2-3.4-5.2-7.3
		c0-4.5,2.3-7.3,5-7.3C250.9,147,251.9,151.5,251.9,154.2L251.9,154.2z M244.7,154.3c0,2.7,0.7,4.3,1.9,4.3c1.3,0,2-1.9,2-4.3
		c0-2.8-0.9-4.3-1.8-4.3C245,150,244.7,152.5,244.7,154.3L244.7,154.3z M263.5,147.2c2.7,0,4.1,1.6,4.1,4c0,3.1-2,4.5-4.7,4.5h-1.1
		v5.6h-3.3v-14.1H263.5z M261.8,150v3h0.7c1,0,1.8-0.5,1.8-1.6c0-0.8-0.5-1.4-1.5-1.4H261.8z">
  </path>
  <path class="st1" d="M152.8,93.9c0,0-0.1-6.2-0.2-7.7c-12.8-0.2-25.3-0.9-25.3-0.9l-0.8,7.6c0,0,1.2-1.1,3.3-1
		c1.9,0.1,4.5,0.3,4.5,0.3s-0.1,34-0.1,36.2c0,2.1-0.2,3.9-1.8,5.4c5-0.3,12.7-0.9,14.4-1c-1.2-1.3-1.6-3.5-1.6-5.2V92.7
		c0,0,2.8,0,4.3,0.1C151.8,92.9,152.8,93.9,152.8,93.9L152.8,93.9z M156.5,86.3c8.7,0.4,12.7,0.3,18.3,0.2c4.6-0.1,10,3.2,10,8.7
		c0,6-4.4,9.8-9,10.9c-0.3,0.1-0.2,0.5,0,0.5c5,1.2,10.5,4.5,10.5,12.1c0,6.7-5.7,13.4-12.5,13.3c-5.3,0-15.4,0-17.2,0.1
		c0.8-0.8,1.4-2.1,1.4-4.7V90.9C158,88.9,157.7,87.1,156.5,86.3z M167.9,93.4h3.5c1.7,0,3.7,1.4,3.7,4.4c0,2.5-1.7,4.9-4.3,4.9h-2.9
		V93.4z M167.9,110.1c5.4-1.2,7.5,2.6,7.5,6.3c0,6.6-3.6,8.5-5.5,8.5c-0.3,0-1.4,0.1-2-0.7C167.9,124.2,167.9,110.1,167.9,110.1z
		 M189.4,86.5c5-0.1,19.1-0.8,22.2-1.1c0.1,1.9,0.3,7.9,0.3,7.9s-1.4-1.4-3.1-1.4c-1.6,0-7.3,0.3-7.3,0.3v10.9c0,0,2.8-0.1,4.1-0.1
		c1.8,0,2.8-1.1,2.8-1.1v8.5c0,0-0.8-1-2.6-1h-4.3v16.8c0,0,4.9,0.2,6.2,0.2c3.2,0.1,4.2-1.1,4.2-1.1s-0.9,7.2-1,7.8
		c-10.6-0.7-21.5-0.8-21.5-0.8s1.6-1.2,1.6-5.3V90.8C191,87.6,189.5,86.6,189.4,86.5L189.4,86.5z M217,85.1
		c2.4-0.2,13.7-1.6,14.6-1.7c0,0-1.5,1.8-1.5,5.5v38.9c0,0,5,0.5,6.1,0.6c3.2,0.3,4.9-1.1,4.9-1.1s-1.6,8.3-1.7,8.8
		c-11.5-1.3-22.2-2.2-22.2-2.2s1.4-1.2,1.4-6.8V91.5C218.4,86,217,85.1,217,85.1z M243.1,81.7c0,0,7.2-1.1,15.3-2.4
		c0,0-1.4,1.6-1.4,5v46.3c0,0,6.2,0.7,7.9,0.9c2.4,0.3,4.4-1.2,4.4-1.2s-1.7,8.9-1.7,9.5c-11.5-1.8-23.9-3.3-23.9-3.3
		s1.4-1.3,1.4-5.6S245,88.4,245,86.6C245,82.8,243.1,81.7,243.1,81.7L243.1,81.7z M263.6,82c0.3-0.9,1-3.8,1-3.8s13.9-2.3,19.1-3.5
		c-5.2,14.9-3.7,24.7,1.6,32.2c6.7-7.4,12.6-23.3,8.3-34.1c11.6-2.3,22.5-5.1,22.5-5.1s1.2,2.4,1.7,3.3c-4.9,1.4-7.7,6.1-8.6,10.9
		c-2.4,12.5-6.4,22-15.4,32.5c-3,3.4-8.6,10.2-8.6,15.1c0,2.7,1.5,4.7,2.9,4.4c0.2,0,0.3-0.1,0.1-0.3c-0.3-0.3-0.9-1.7-0.9-3
		c0-3.6,3.4-6.6,8-6.6c5.3,0,9,4.5,9,10c0,7.8-7,12.6-13.3,12.6c-10,0-16.1-8.2-16.1-17c0-4,1.4-8.3,2.7-10.9
		c-7.7-10.3-11.4-22.8-10.1-33.7C268,82.3,266.2,81.2,263.6,82L263.6,82z M108.8,82c-6.2,0-18.3,3.5-18.3,28.7
		c0,17.7,8.1,27,18.3,26.5c12.7-0.7,17.4-12.1,17.4-27.9C126.2,88.6,117.8,82,108.8,82z M108.4,90.6c-2.9,0-5.8,3.4-5.8,20.1
		c0,9.6,1.2,19.3,6.1,19.1c5-0.2,5.4-11.2,5.4-19.1C114.1,92,111.3,90.6,108.4,90.6z M87.9,96.7c0-11.4-10-22-27.6-22
		c-20.1,0-30.7,13.4-30.7,23.8c0,10.2,6.5,16,13.5,16c4.1,0,7.6-3,8.7-6.8c0,9.4,0.1,20,0.1,21.8c0,3.3-0.2,6.7-2.9,10
		c-1.6,1.9-4.2,3.4-8.7,4.6c0.3,0.6,1.4,2.6,1.9,3.6c11.4-3.2,23.2-5.7,33.1-7.5c0,0,0.4-2.2,0.7-3.8c-3.2,0.6-5.2,0.6-7.1-0.6
		c-1.7-1.1-3.5-4.2-3.5-7.4c0-0.6,0-3.5-0.1-7.6C72.1,120,87.9,114.6,87.9,96.7L87.9,96.7z M45,97.2c-3.2,0-4.6,2.5-4.9,3.6
		c-0.1,0.7-0.5,0.7-0.9,0.2c-0.7-0.6-1.3-1.8-1.3-3.8c0-6.6,5-11.2,9-11.2c3.2,0,4.9,1.1,4.9,6.4v9.6C50.8,98.8,48.1,97.2,45,97.2z
		 M65.4,113.3c-0.1-12.6-0.3-28.7-0.3-29.7s0.3-1.3,1.3-1.3c2.8,0,8.5,2.9,8.5,14.6C74.8,105.5,72,112.4,65.4,113.3z">
  </path>
  <path d="M320.9,50.4c-13.5,10.5-33-2.5-28.1-19.2c-12.9,1.5-31.5-5.5-49.5-12.8C220,8.8,201.6,0,173.7,0s-46.3,8.8-69.6,18.3
		c-17.9,7.3-36.5,14.3-49.5,12.8C59.5,47.9,40,60.9,26.5,50.4c-35.2,24.8-36.7,85.8,3.6,110.5c11.4-10.1,31,0.2,27.2,17.1h232.6
		c-3.8-16.9,15.8-27.2,27.2-17.1C357.6,136.2,356,75.1,320.9,50.4L320.9,50.4z M317.3,153.8c-3.4-1.9-7.1-2.8-10.6-2.8
		c-5.9,0-11.5,2.3-15.8,6.2c-3.9,3.6-6.7,8.8-7.1,14.8H63.6c-0.4-6-3.2-11.2-7.1-14.8c-4.3-4-9.9-6.2-15.8-6.2
		c-3.6,0-7.3,0.9-10.6,2.8c-7.7-5.4-13.5-12.4-17.5-20.2c-4.5-8.9-6.8-18.9-6.8-28.9c0-9.7,2.1-19.5,6.2-28.1
		c3.5-7.5,8.5-14.1,14.8-19.3c3.4,1.7,7,2.6,10.5,2.5c6.3,0,12.2-2.5,16.6-6.7c4.2-4,7.1-9.7,7.3-16.2c6.5-0.4,13.3-2,20.4-4.2
		c8.1-2.5,16.5-5.8,24.7-9.2c11.7-4.8,22-9.3,32.6-12.5c10.6-3.3,21.5-5.3,34.8-5.3s24.2,2.1,34.8,5.3c10.6,3.3,20.8,7.7,32.6,12.5
		c8.2,3.3,16.6,6.7,24.7,9.2c7.1,2.2,13.9,3.8,20.4,4.2c0.2,6.5,3.1,12.2,7.3,16.2c4.4,4.2,10.3,6.7,16.6,6.7
		c3.5,0,7.1-0.8,10.5-2.5c6.3,5.2,11.3,11.8,14.8,19.3c4.1,8.6,6.2,18.3,6.2,28.1c0,10-2.2,20-6.8,28.9
		C330.8,141.5,325,148.4,317.3,153.8L317.3,153.8z">
  </path>
  <path class="st1" d="M191,14.2c0.3,0,0.3,0.5,0.2,0.7c-0.1,0.1-0.2,0.2-0.2,0.4v0.4c0,0.1,0,0.3-0.1,0.4c-0.1,0.2-0.1,0.4-0.2,0.6
		c0,0.1,0,0.2-0.1,0.3l-0.3,1.2c0,0.1-0.1,0.1-0.1,0.2v0.2l-0.1,0.1c0,0.1-0.1,0.3-0.1,0.4s-0.1,0.2-0.2,0.3v0.2
		c0,0.1-0.1,0.3-0.1,0.5v0.2l-0.1,0.1v0.1c0,0.1-0.1,0.1-0.1,0.1v0.1c-0.1,0.2-0.2,0.5-0.3,0.7v0.2c-0.2,0.5-0.4,1-0.6,1.4
		c-0.1,0.3-0.1,0.6-0.1,0.8v0.3c-0.3,0.9-0.5,1.9-0.8,2.8v0.2c0,0.2-0.1,0.4-0.1,0.6c0,0.1-0.1,0.2-0.2,0.4c0,0.1,0,0.3-0.1,0.5
		c0,0.1-0.1,0.2-0.1,0.3c-0.1,0.3-0.1,0.5-0.2,0.8c-0.1,0.2-0.2,0.3-0.3,0.5s-0.2,0.4-0.4,0.5c-0.1,0.1-0.3,0-0.5,0
		s-0.4,0.2-0.6,0.1c-0.1,0-0.1-0.1-0.2-0.1c-0.1-0.1-0.3-0.2-0.4-0.3c0-0.1-0.1-0.1-0.1-0.2c-0.1-0.1-0.1-0.2-0.2-0.3v-0.5
		c0-0.1,0.1-0.2,0.1-0.2v-0.3c0-0.1,0.1-0.3,0.2-0.4v-0.1c0-0.1,0.1-0.2,0.1-0.3v-0.3c0-0.1,0.1-0.1,0.1-0.2c0.1-0.1,0-0.3,0.1-0.5
		C185,27,185,27,185.1,27c0.1-0.1,0.1-0.3,0.2-0.4c0-0.1,0.1-0.2,0.2-0.3c0-0.1,0.1-0.3,0.1-0.4c0,0,0.1-0.1,0.1-0.2
		c0.1-0.1,0.1-0.3,0.2-0.4c0.1-0.2,0.3-0.3,0.4-0.5c0.1-0.2,0.1-0.4,0.2-0.6c0-0.1,0.1-0.1,0.2-0.2v-0.2l0.1-0.1
		c0-0.1,0-0.2,0.1-0.3l0.1-0.1V23c0-0.1,0-0.2,0.1-0.2c0.1-0.1,0.2-0.3,0.3-0.4l0.3-0.6l0.1-0.1c0.1-0.1,0.1-0.2,0.1-0.4
		c0-0.1,0.1-0.2,0.1-0.3c0-0.1,0-0.2,0.1-0.3c0.2-0.4,0.4-0.9,0.7-1.3c0-0.1,0-0.1,0.1-0.2s0.1-0.2,0.2-0.3c0.1-0.3,0.1-0.7,0.2-0.9
		c0.1-0.2,0.1-0.4,0.2-0.5c0.1-0.1,0.2-0.2,0.2-0.4c0.1-0.1,0.1-0.2,0.1-0.4c0.1-0.3,0.3-0.6,0.4-0.9c0.1-0.1,0.1-0.3,0.1-0.4v-0.2
		l0.1-0.1c0-0.1,0.1-0.1,0.1-0.2l0.1-0.1c0-0.1,0-0.1,0.1-0.2l0.1-0.1c0-0.1,0-0.1,0.1-0.2C190.9,14.4,190.9,14.3,191,14.2L191,14.2
		z M156.2,15.4c0.3,0,0.4,0.1,0.6,0.3l0.1,0.1c0.1,0.1,0,0.3,0.1,0.4l0.1,0.1c0,0.1,0,0.1,0.1,0.2l0.1,0.1c0.1,0.1,0.1,0.3,0.2,0.5
		c0,0.1,0.1,0.1,0.1,0.2c0.1,0.1,0.1,0.3,0.2,0.5c0,0.1,0.1,0.2,0.2,0.2l0.3,0.6l0.3,0.6c0,0.1,0,0.2,0.1,0.3c0,0.1,0.1,0.2,0.1,0.2
		c0,0.1,0.1,0.2,0.1,0.3c0,0.1,0.1,0.1,0.1,0.2l0.3,0.9c0.1,0.1,0.1,0.2,0.2,0.3c0.1,0.1,0.1,0.2,0.1,0.3c0.1,0.1,0.2,0.2,0.3,0.4
		c0.1,0.2,0.1,0.5,0.2,0.6c0.2,0.4,0.6,0.8,0.8,1.2c0.1,0.1,0.1,0.2,0.1,0.3c0,0.1,0.1,0.1,0.1,0.2s0,0.2,0.1,0.3c0,0,0.1,0,0.1,0.1
		s0,0.1,0.1,0.2c0.1,0.2,0.2,0.5,0.4,0.8c0,0.1,0.1,0.2,0.2,0.4c0.1,0.1,0.1,0.2,0.1,0.3c0,0.1,0.1,0.1,0.2,0.2c0,0.1,0,0.2,0.1,0.2
		c0,0.1,0.1,0.2,0.2,0.3c0,0.1,0,0.1,0.1,0.2s0.2,0.3,0.3,0.5c0,0.1,0,0.2,0.1,0.3c0,0.1,0.1,0.1,0.1,0.2v0.1c0,0.1,0.1,0.2,0.1,0.3
		c0,0.1,0,0.2,0.1,0.3c0.1,0.1,0.2,0.2,0.2,0.3c0,0.1,0,0.1,0.1,0.2c0,0.1,0.1,0.1,0.2,0.2v0.9c0,0.1-0.1,0.1-0.2,0.2V31
		c-0.1,0.1-0.4,0.3-0.5,0.4c-0.2,0.1-0.4,0.1-0.6,0c-0.1,0-0.2-0.1-0.3-0.1c-0.4-0.2-0.5-0.3-0.7-0.6c0,0-0.1-0.1-0.2-0.1
		c-0.1-0.1-0.2-0.2-0.2-0.3v-0.2c0-0.1-0.1-0.1-0.1-0.2v-0.4c0-0.1-0.1-0.2-0.2-0.3c-0.1-0.1-0.1-0.3-0.1-0.4v-0.2
		c0-0.1-0.1-0.2-0.2-0.3v-0.2c0-0.1-0.1-0.3-0.1-0.4v-0.2c0-0.1-0.1-0.2-0.1-0.3c0-0.1-0.1-0.2-0.1-0.3c-0.1-0.2-0.1-0.4-0.2-0.6
		c0-0.1-0.1-0.3-0.2-0.4c-0.1-0.1-0.1-0.1-0.2-0.3c0-0.1,0-0.4-0.1-0.5v-0.3c0-0.1-0.2-0.2-0.3-0.3c-0.1-0.1-0.2-0.3-0.2-0.4
		c-0.1-0.2,0-0.4-0.1-0.6c0-0.1-0.1-0.2-0.2-0.3c-0.1-0.1-0.1-0.3-0.1-0.4c-0.2-0.5-0.4-1.1-0.6-1.6c-0.1-0.2-0.1-0.4-0.1-0.5
		s-0.1-0.2-0.1-0.3v-0.2c0-0.1-0.1-0.3-0.1-0.4v-0.1l-0.1-0.1v-0.2l-0.1-0.1v-0.1c0-0.1-0.1-0.1-0.1-0.2c-0.1-0.2-0.1-0.3-0.2-0.5
		c0-0.1-0.1-0.1-0.1-0.2c-0.1-0.2-0.1-0.4-0.1-0.5s-0.1-0.1-0.1-0.2v-0.2c0,0-0.1-0.1-0.1-0.2V17c0-0.1-0.1-0.2-0.2-0.2
		c-0.1-0.1-0.2-0.3-0.2-0.5C156.2,15.5,156.2,15.4,156.2,15.4L156.2,15.4z M208,21.9h0.1c0.3,0.5-0.2,0.8-0.5,1.1
		c-0.2,0.3-0.4,0.6-0.6,0.8c-0.1,0.1-0.2,0.3-0.3,0.4l-0.1,0.1c-0.2,0.2-0.3,0.4-0.4,0.6l-0.1,0.1v0.1l-0.1,0.1c0,0,0,0.1-0.1,0.1
		c0,0.1-0.1,0.1-0.2,0.2s-0.1,0.2-0.2,0.3c-0.1,0-0.1,0.1-0.2,0.1c-0.2,0.3-0.4,0.4-0.7,0.6c-0.1,0.1-0.2,0.3-0.3,0.4l-0.3,0.3
		c-0.1,0.1-0.2,0.3-0.2,0.4v0.1c0,0-0.1,0-0.1,0.1v0.1c-0.1,0.1-0.2,0.2-0.2,0.3v0.1l-0.3,0.3c-0.1,0.1-0.2,0.3-0.3,0.4
		c0,0.1-0.1,0.1-0.2,0.2c0,0.1,0,0.1-0.1,0.2c0,0.1-0.1,0.1-0.2,0.1c-0.1,0.1-0.1,0.2-0.2,0.3l-0.1,0.1c0,0-0.1,0.1-0.1,0.2
		l-0.3,0.3c0,0,0,0.1-0.1,0.2l-0.1,0.1c0,0.1-0.1,0.1-0.1,0.2h-0.1c0,0.1-0.1,0.1-0.1,0.2l-0.2,0.2c0,0.1,0,0.1-0.1,0.2
		c-0.1,0.2-0.3,0.3-0.4,0.4c-0.1,0.1-0.1,0.2-0.1,0.2l-0.1,0.1c0,0.1,0,0.1-0.1,0.2c0,0-0.1,0-0.1,0.1c-0.1,0.1-0.1,0.2-0.2,0.2
		s-0.1,0-0.2,0.1c0,0,0,0.1-0.1,0.1l-0.1,0.1c-0.1,0.1,0,0.2-0.1,0.3c0,0-0.1,0-0.1,0.1s0,0.1-0.1,0.2l-0.1,0.1
		c-0.1,0.1-0.1,0.4-0.2,0.5l-0.1,0.1c-0.1,0.1-0.1,0.1-0.1,0.2l-0.2,0.2c-0.1,0.1-0.2,0.3-0.3,0.4l-0.3,0.3
		c-0.2,0.2-0.5,0.4-0.6,0.7c0,0.1-0.1,0.2-0.1,0.3s-0.2,0.1-0.2,0.2l-0.5,0.5c-0.2,0.1-0.6,0.3-1,0.2c-0.1,0-0.1-0.1-0.2-0.1
		s-0.2,0-0.3-0.1s-0.2-0.3-0.3-0.4c-0.1-0.1-0.2-0.3-0.2-0.4c-0.1-0.2,0-0.8,0.1-1l0.1-0.1c0-0.1,0.1-0.1,0.1-0.2
		c0.1,0,0.1-0.1,0.2-0.1v-0.1l0.2-0.2c0-0.1,0.1-0.1,0.1-0.2c0.1-0.1,0.3-0.1,0.3-0.2l0.6-0.9l0.5-0.3c0.1,0,0.2,0,0.2-0.1
		c0.1-0.1,0.1-0.4,0.2-0.5c0.2-0.3,0.3-0.3,0.6-0.5c0-0.1,0.1-0.1,0.1-0.2c0.1-0.1,0.2-0.1,0.2-0.1l0.4-0.4c0-0.1,0-0.1,0.1-0.2
		l0.1-0.1c0.1-0.2,0.3-0.3,0.4-0.5c0.1-0.1,0.2-0.2,0.3-0.2l0.1-0.1h0.1l0.1-0.1c0.2-0.1,0.4-0.2,0.5-0.4v-0.1l0.2-0.2
		c0.1-0.1,0.1-0.2,0.2-0.3c0.2-0.1,0.3-0.3,0.5-0.4c0-0.1,0.1-0.1,0.1-0.2c0.1-0.1,0.3-0.2,0.4-0.4l0.3-0.3c0.1,0,0.1-0.1,0.1-0.1
		s0-0.1,0.1-0.1l0.2-0.2c0-0.1,0.1-0.1,0.1-0.2c0.4-0.3,0.8-0.5,1.2-0.8l0.1-0.1c0.2-0.2,0.4-0.4,0.6-0.7l0.1-0.1
		c0.1-0.1,0.2-0.3,0.3-0.4l0.1-0.1c0.1-0.1,0.1-0.2,0.2-0.3c0.1-0.1,0.3-0.2,0.3-0.2c0.2-0.1,0.3-0.4,0.5-0.5c0.1,0,0.1,0,0.2-0.1
		c0.1,0,0.2-0.2,0.2-0.2c0-0.1,0.1-0.1,0.2-0.1c0.1-0.1,0.2-0.2,0.3-0.4c0.1-0.1,0.2-0.1,0.3-0.2l0.2-0.2c0-0.1,0-0.1,0.1-0.2
		l0.2-0.2c0.1,0,0.1-0.1,0.1-0.2C207.9,22,207.9,21.9,208,21.9L208,21.9z M139.7,23.2C139.8,23.2,139.8,23.2,139.7,23.2
		c0.2,0.1,0.6,0.3,0.6,0.4c0.1,0.1,0.1,0.2,0.2,0.3c0.1,0.1,0.3,0.1,0.4,0.2l0.1,0.1l0.2,0.2c0,0,0,0.1,0.1,0.1
		c0.1,0.1,0.1,0.1,0.2,0.1c0.1,0.1,0.1,0.2,0.2,0.2l0.1,0.1c0.2,0.2,0.3,0.3,0.5,0.4l0.3,0.3c0.3,0.2,0.5,0.4,0.8,0.7
		c0.1,0.1,0.2,0.1,0.2,0.2l0.1,0.1c0.1,0.1,0.1,0.1,0.2,0.1l0.1,0.1l0.1,0.1c0.1,0.1,0.1,0.1,0.1,0.2c0.1,0.1,0.3,0.2,0.3,0.2
		l0.2,0.2c0.2,0.1,0.4,0.3,0.5,0.5c0.1,0.1,0.3,0.2,0.4,0.3c0.2,0.1,0.3,0.3,0.4,0.4l0.3,0.3l0.3,0.3c0.1,0.2,0.3,0.4,0.4,0.6
		l0.2,0.2c0.1,0.2,0.3,0.3,0.4,0.4c0.1,0.1,0.2,0.1,0.2,0.1c0.1,0.1,0.3,0.2,0.4,0.3c0.1,0.1,0.2,0.1,0.3,0.2c0.1,0,0.1,0.1,0.1,0.2
		c0.1,0.1,0.2,0.1,0.2,0.2c0.1,0.1,0.2,0.3,0.3,0.4c0,0.1,0.1,0.1,0.2,0.1c0.2,0.3,0.5,0.5,0.7,0.7c0.2,0.1,0.2,0.3,0.4,0.5
		c0,0,0.1,0,0.1,0.1l0.1,0.1c0.1,0,0.1,0.1,0.2,0.1l0.2,0.2c0.1,0.1,0.2,0.1,0.3,0.1c0,0.1,0.1,0.1,0.1,0.2c0.2,0.1,0.3,0.3,0.4,0.4
		h0.1c0,0,0.2,0.2,0.2,0.3v0.1c0,0.1,0.1,0.1,0.2,0.2s0.1,0.2,0.2,0.3c0,0.1,0.1,0.2,0.2,0.2v0.1c0.1,0.1,0.2,0,0.2,0.3v0.3
		c0,0.1,0,0.2-0.1,0.2v0.2c0,0.1-0.1,0.2-0.1,0.3c-0.1,0.1-0.6,0.4-0.7,0.5h-0.8c-0.1-0.1-0.6-0.4-0.7-0.5c-0.1-0.1-0.1-0.2-0.2-0.3
		c-0.1-0.1-0.2-0.1-0.3-0.2c0-0.1-0.1-0.2-0.1-0.2c-0.1-0.1-0.2-0.1-0.2-0.2c-0.1-0.2-0.2-0.3-0.3-0.5l-0.2-0.2
		c-0.3-0.4-0.7-0.7-1-1.1L148,34c-0.1-0.2-0.3-0.3-0.4-0.4l-0.1-0.1c-0.1-0.2-0.3-0.4-0.4-0.5c-0.1-0.1-0.1-0.3-0.2-0.4l-0.3-0.3
		c-0.3-0.4-0.6-0.7-0.9-1.1c-0.2-0.3-0.6-0.5-0.8-0.7c-0.2-0.3-0.5-0.6-0.7-0.9h-0.1l-0.1-0.1l-0.1-0.1c-0.1-0.1-0.1-0.2-0.1-0.3
		l-0.3-0.3c0-0.1-0.1-0.2-0.1-0.3l-0.1-0.1c0-0.1,0-0.1-0.1-0.2l-0.1-0.1l-0.3-0.6c-0.1-0.2-0.3-0.3-0.4-0.4
		c-0.1-0.2-0.2-0.3-0.3-0.4l-0.1-0.1c-0.1-0.1-0.1-0.2-0.2-0.3l-0.1-0.1c-0.1-0.1-0.2-0.2-0.3-0.4c-0.1-0.1-0.1-0.2-0.2-0.3
		c-0.1-0.1-0.3-0.2-0.4-0.4c0-0.1-0.1-0.2-0.1-0.2l-0.1-0.1c-0.1-0.1-0.1-0.2-0.2-0.3l-0.1-0.1v-0.1c-0.1-0.1-0.2-0.2-0.3-0.2
		s-0.4-0.5-0.4-0.6v-0.2L139.7,23.2L139.7,23.2z M224.5,37.6h0.2c0,0.1,0.1,0.1,0.1,0.3c-0.1,0.1-0.1,0.1-0.1,0.2
		c-0.1,0.1-0.3,0.1-0.4,0.1c-0.1,0.1-0.2,0.2-0.4,0.2h-0.1c-0.1,0.1-0.2,0.1-0.3,0.2c-0.2,0.1-0.4,0.1-0.6,0.2
		c-0.1,0.1-0.2,0.1-0.2,0.2c-0.3,0.1-0.6,0.1-0.8,0.2c-0.1,0-0.2,0.1-0.3,0.2h-0.1c-0.1,0.1-0.3,0.2-0.4,0.2H221
		c-0.1,0.1-0.3,0.2-0.4,0.3c-0.1,0-0.2,0-0.2,0.1c-0.1,0-0.2,0.2-0.3,0.2H220l-0.1,0.1h-0.1l-0.1,0.1c-0.1,0-0.1,0-0.2,0.1
		c-0.1,0-0.2,0.1-0.2,0.1h-0.2l-0.1,0.1c-0.1,0.1-0.3,0.2-0.4,0.3c-0.1,0.1-0.3,0.1-0.4,0.1c-0.1,0-0.1,0.1-0.2,0.2
		c-0.1,0-0.2,0-0.3,0.1s-0.2,0.1-0.3,0.2c-0.1,0.1-0.3,0.1-0.4,0.1l-0.6,0.3c-0.1,0-0.1,0-0.2,0.1s-0.2,0.2-0.4,0.2
		c-0.3,0.1-0.7,0.3-1,0.4c-0.2,0.1-0.4,0.1-0.6,0.2l-0.1,0.1H214c0,0,0,0.1-0.1,0.1c-0.1,0.1-0.3,0.1-0.4,0.2
		c-0.1,0-0.1,0.1-0.2,0.1c-0.1,0.1-0.2,0.1-0.3,0.1l-0.1,0.1c-0.1,0-0.1,0-0.2,0.1c-0.1,0-0.1,0.1-0.1,0.1c-0.1,0.1-0.2,0-0.3,0.1
		c-0.1,0-0.2,0.1-0.3,0.2c-0.1,0.1-0.2,0.1-0.3,0.1h-0.1l-0.1,0.1c-0.3,0.1-0.6,0.3-1,0.4c-0.1,0-0.1,0.1-0.2,0.1s-0.2,0-0.3,0.1
		l-0.1,0.1h-0.2l-0.1,0.1h-0.2l-0.1,0.1c-0.1,0.1-0.3,0.1-0.4,0.2c-0.1,0.1-0.2,0.2-0.3,0.2c-0.1,0.1-0.3,0.1-0.4,0.1
		c-0.2,0.1-0.5,0.3-0.7,0.4c-0.1,0.1-0.3,0.1-0.4,0.2l-0.1,0.1c-0.2,0.1-0.4,0.1-0.5,0.1s-0.2,0.1-0.3,0.1s-0.1,0-0.2,0.1l-0.1,0.1
		c-0.1,0-0.2,0-0.3,0.1c-0.1,0-0.2,0.1-0.3,0.2h-0.1l-0.1,0.1c-0.1,0.1-0.3,0.1-0.4,0.2l-0.3,0.3c-0.1,0.1-0.2,0-0.3,0.1l-0.1,0.1
		c-0.1,0-0.2-0.1-0.3,0c-0.5,0.1-0.9-0.2-1.1-0.5c0-0.1-0.1-0.2-0.1-0.2l-0.1-0.1c-0.2-0.5,0-1,0.2-1.4c0-0.1,0.1-0.1,0.1-0.2
		c0.1-0.1,0.3-0.1,0.4-0.2c0.1-0.1,0.2-0.1,0.3-0.2c0.1,0,0.1,0,0.2-0.1l0.1-0.1h0.2l0.1-0.1h0.2c0.1,0,0.1-0.1,0.2-0.1h0.3
		c0.1,0,0.1-0.1,0.2-0.1h0.1c0,0,0.1,0,0.1-0.1h0.1l0.1-0.1h0.2c0.1,0,0.3-0.1,0.4-0.2c0.1,0,0.1-0.1,0.1-0.1h0.1
		c0.1,0,0.2-0.1,0.2-0.1h0.2c0.1,0,0.1-0.1,0.2-0.1h0.2c0.1,0,0.2-0.1,0.2-0.1h0.1l0.1-0.1h0.2c0.1,0,0.3-0.1,0.4-0.2h0.2l0.1-0.1
		h0.3c0.3-0.1,0.6-0.3,0.8-0.4h0.2c0.2-0.1,0.5-0.2,0.7-0.3c0.1-0.1,0.3,0,0.4-0.1l0.1-0.1c0.1,0,0.2-0.1,0.3-0.1s0.3,0,0.4-0.1
		l0.1-0.1c0.1,0,0.2,0,0.3-0.1c0.2-0.1,0.4-0.2,0.7-0.3h0.2c0.1,0,0.2-0.1,0.3-0.2h0.2c0.1,0,0.1-0.1,0.2-0.1h0.2
		c0.1,0,0.2-0.1,0.3-0.1h0.2c0.4-0.2,0.9-0.2,1.3-0.4c0.1,0,0.1-0.1,0.2-0.1c0.2-0.1,0.4-0.1,0.7-0.2c0.2-0.1,0.5-0.2,0.8-0.3h0.2
		c0,0,0.1-0.1,0.2-0.1h0.3c0.1,0,0.2-0.1,0.3-0.1h0.2c0.1,0,0.2-0.1,0.2-0.2c0.1-0.1,0.2,0,0.3-0.1c0.1,0,0.2-0.1,0.3-0.2h0.2
		c0.1,0,0.1-0.1,0.2-0.1h0.1l0.1-0.1c0.2-0.1,0.4-0.2,0.6-0.2c0.1,0,0.2,0,0.3-0.1s0.3-0.2,0.4-0.2h0.3c0.1,0,0.2-0.1,0.4-0.2
		s0.4-0.1,0.5-0.2c0.1,0,0.1-0.1,0.2-0.1c0.1-0.1,0.3,0,0.4-0.1l0.1-0.1c0.1-0.1,0.3-0.1,0.4-0.1c0.1,0,0.2-0.1,0.3-0.2h0.2l0.9-0.3
		C224.3,37.6,224.4,37.6,224.5,37.6L224.5,37.6z M123.6,38.4c0.1,0,0.1,0.1,0.2,0.1h0.2c0.1,0.1,0.2,0.1,0.3,0.2
		c0.2,0.1,0.5,0.2,0.7,0.3h0.2c0.1,0,0.3,0.1,0.4,0.1l0.6,0.3c0.3,0.1,0.5,0.2,0.8,0.2c0.1,0,0.2,0,0.4,0.1l0.1,0.1h0.2
		c0.2,0.1,0.4,0.2,0.6,0.2c0.2,0.1,0.3,0,0.4,0.1c0.1,0,0.1,0.1,0.2,0.1c0.2,0.1,0.4,0.1,0.6,0.2h0.1c0.1,0,0.2,0.1,0.3,0.1
		s0.2,0,0.4,0.1c0.1,0,0.2,0.1,0.4,0.2h0.3c0.1,0,0.2,0.1,0.3,0.2c0.3,0.1,0.5,0.2,0.8,0.3s0.7,0.1,1,0.2h0.3
		c0.1,0.1,0.3,0.2,0.4,0.3L134,42h0.3c0.2,0,0.4,0.1,0.6,0.1c0.1,0,0.3,0.1,0.4,0.2l0.1,0.1h0.2c0.1,0,0.2,0.1,0.2,0.1h0.3
		c0.1,0,0.1,0.1,0.2,0.1c0.2,0.1,0.4,0.1,0.6,0.2c0.1,0,0.2,0.1,0.3,0.2h0.2c0.1,0,0.1,0.1,0.2,0.1h0.2c0.1,0,0.3,0.1,0.4,0.1h0.2
		c0,0,0.1,0,0.1,0.1c0.2,0.1,0.4,0,0.5,0.1c0.2,0.1,0.3,0.2,0.5,0.2c0.2,0.1,0.4,0.1,0.6,0.2h0.3c0.1,0,0.2,0.1,0.3,0.1
		c0.2,0.1,0.3,0,0.5,0.1l0.1,0.1c0.1,0,0.2,0,0.3,0.1c0.1,0,0.2,0.2,0.3,0.2h0.1c0.1,0,0.2,0.1,0.3,0.1h0.2c0.1,0,0.2,0.1,0.3,0.1
		h0.2c0.1,0,0.1,0.1,0.2,0.1h0.1c0.1,0,0.2,0.1,0.3,0.1h0.1c0.1,0,0.3,0.1,0.4,0.1h0.2c0.4,0.1,0.7,0.3,1,0.5
		c0.1,0.1,0.3,0.1,0.4,0.2l0.3,0.3l0.3,0.3c0.1,0.1,0.1,0.2,0.1,0.3s0.1,0.2,0.2,0.3c0.1,0.2,0,0.6-0.1,0.7c0,0.1-0.3,0.5-0.3,0.6
		c-0.5,0.3-1.1,0.4-1.7,0.2c-0.1,0-0.2,0-0.3-0.1c-0.2-0.1-0.3-0.3-0.4-0.4c-0.1-0.1-0.3-0.2-0.4-0.2H143c-0.1,0-0.2,0-0.3-0.1
		c-0.2-0.1-0.2-0.4-0.5-0.5c-0.2-0.1-0.4,0-0.6,0c-0.1,0-0.3-0.1-0.4-0.2l-0.1-0.1h-0.3c-0.1,0-0.2-0.1-0.2-0.2
		c-0.1-0.1-0.3-0.1-0.4-0.1c-0.1,0-0.1-0.1-0.2-0.1h-0.2l-0.1-0.1c-0.1-0.1-0.2-0.1-0.3-0.1s-0.1-0.1-0.2-0.1
		c-0.1-0.1-0.2-0.1-0.3-0.1c0,0-0.1,0-0.1-0.1c-0.2-0.1-0.4-0.1-0.6-0.2c-0.1,0-0.2-0.1-0.3-0.2c0,0,0-0.1-0.1-0.1h-0.1
		c-0.1,0-0.1-0.1-0.2-0.1c-0.1-0.1-0.3-0.1-0.4-0.2c-0.2-0.1-0.4-0.2-0.5-0.4c-0.1-0.1-0.3-0.1-0.4-0.1c-0.1,0-0.1-0.1-0.2-0.1
		s-0.2,0-0.3-0.1c-0.1,0-0.1-0.1-0.2-0.1c-0.1-0.1-0.2-0.1-0.3-0.1s-0.3-0.2-0.3-0.3c0,0,0-0.1-0.1-0.1s-0.3-0.1-0.4-0.1
		c-0.3-0.1-0.6-0.1-0.9-0.3l-0.6-0.3c-0.1,0-0.2-0.1-0.3-0.1s-0.1-0.1-0.1-0.1c-0.1,0-0.1,0-0.2-0.1s-0.2-0.2-0.3-0.2
		c-0.1-0.1-0.2-0.1-0.3-0.1c-0.2-0.1-0.4-0.2-0.5-0.3s-0.3,0-0.4-0.1c-0.1,0-0.2-0.1-0.3-0.2h-0.1c-0.1,0-0.2-0.1-0.3-0.2
		c-0.1,0-0.2,0-0.3-0.1c-0.1,0-0.1-0.1-0.2-0.1s-0.2-0.1-0.3-0.1l-0.1-0.1h-0.1c-0.1-0.1-0.2-0.1-0.3-0.2c-0.1,0-0.2,0-0.3-0.1
		c-0.2-0.1-0.5-0.2-0.7-0.3c-0.2-0.1-0.3-0.1-0.4-0.2c-0.2-0.1-0.3-0.2-0.5-0.3c-0.1-0.1-0.2-0.1-0.3-0.1c-0.1,0-0.1-0.1-0.2-0.2
		c-0.1,0-0.2,0-0.3-0.1c-0.1,0-0.2-0.1-0.4-0.2c-0.2,0-0.3-0.1-0.5-0.1c-0.1,0-0.1-0.1-0.2-0.1h-0.1c-0.1,0-0.1-0.1-0.2-0.1h-0.1
		l-0.2-0.2c-0.1,0-0.2-0.1-0.3-0.1h-0.2c-0.1,0-0.1-0.1-0.2-0.2v-0.3C123.5,38.5,123.5,38.4,123.6,38.4L123.6,38.4z M140.9,57.4
		c0.1,0,0.3,0,0.4,0.1h0.2c0.2,0,0.5,0.1,0.7,0.1c0.1,0,0.2-0.1,0.3,0c0,0,0.1,0,0.1,0.1h0.2l0.1,0.1h0.1c0.1,0,0.1,0.1,0.2,0.1
		c0.1,0.1,0.2,0.1,0.3,0.1c0.3,0.2,0.5,0.9,0.4,1.4c-0.1,0.2,0,0.3-0.1,0.5l-0.7,0.7c-0.1,0.1-0.3,0-0.4,0.1
		c-0.2,0.1-0.2,0.2-0.4,0.3s-0.4-0.1-0.5-0.1h-0.4c-0.1,0-0.2,0.1-0.3,0.1H140c-0.1,0-0.3-0.1-0.4-0.1c-0.4,0-0.8,0.1-1.1,0
		c-0.2-0.1-0.4,0.1-0.6,0c-0.2,0-0.5-0.1-0.7-0.1h-0.4c-0.4,0-0.8,0.1-1.1,0c-0.2,0-0.3,0.1-0.5,0c-0.1,0-0.2-0.1-0.3-0.1
		s-0.2,0.1-0.4,0c-0.1,0-0.1-0.1-0.2,0H134c-0.1,0-0.2-0.1-0.3-0.1h-0.6c-0.1,0-0.3,0.1-0.4,0.1c-0.1,0-0.2-0.1-0.2-0.2
		c-0.1-0.1-0.2-0.1-0.4-0.1h-0.6c-0.2,0.1-0.5,0.1-0.7,0.2h-0.6c-0.1,0-0.2-0.2-0.3-0.2c-0.2-0.1-0.2,0.1-0.3,0.1h-0.2
		c-0.2,0-0.6-0.1-0.7-0.1h-0.6c-0.3,0-0.6,0-0.9-0.1c-0.1,0-0.4,0.1-0.6,0c-0.3-0.1-0.7,0-1-0.1h-0.4c-0.3-0.1-0.7,0-1-0.1h-1.3
		c-0.1,0-0.2-0.1-0.3-0.1h-0.2c-0.2,0-0.4,0-0.5-0.1h-1.3c-0.2-0.1-0.9-0.1-1.2,0h-0.9c-0.3,0.1-0.6,0.1-0.9,0.1h-0.4
		c-0.1,0-0.1,0-0.2-0.1h-0.3c-0.1,0-0.2-0.2-0.3-0.2c-0.1,0-0.5,0.1-0.6,0.1c-0.2,0-0.3-0.1-0.4-0.1c-0.4-0.1-0.7,0-0.7-0.5
		c0.2-0.1,0.4-0.1,0.7-0.2h0.3c0.4-0.1,0.9,0,1.4,0c0.2,0,0.4,0,0.6-0.1c0.2,0,0.4,0,0.5-0.1h0.3c0.4,0,0.7,0,1,0.1s0.7-0.1,0.9-0.1
		h0.7c0.1,0,0.3,0.1,0.5,0.1c0.1,0,0.2-0.1,0.3-0.1h0.3c0.1,0,0.2-0.1,0.2-0.1h0.5c0.1,0,0.2-0.1,0.3-0.1c0.3-0.1,0.5,0.1,0.7,0
		c0.1,0,0.2,0,0.2-0.1h0.5c0.1,0,0.2-0.1,0.3-0.1h0.3c0.1,0,0.3,0,0.4-0.1h1.4c0.5-0.1,1.2-0.1,1.7-0.2c0.2,0,0.4,0,0.6,0.1h0.4
		c0.2,0,0.3-0.1,0.4,0c0.1,0,0.2,0.2,0.3,0.1c0.2-0.1,0.4-0.2,0.6-0.2h0.8c0.1,0,0.2-0.1,0.3-0.1h0.2c0.2-0.1,0.5-0.1,0.7-0.2h1
		c0.2-0.1,0.6,0,0.8,0c0.1,0,0.1-0.1,0.2-0.1h0.2c0.1,0,0.2,0,0.3-0.1c0.1,0,0.3,0,0.4,0.1h0.5c0.3-0.1,0.8-0.1,1.1-0.1h1.4
		c0.1,0,0.3-0.1,0.4-0.1h0.2c0.2,0,0.3,0,0.4-0.1h0.3c0.1,0,0.3-0.1,0.4-0.1C140.5,57.4,140.7,57.5,140.9,57.4L140.9,57.4z
		 M207,57.5h0.7c0.1,0,0.3,0.1,0.5,0c0.1,0,0.6-0.1,0.8,0s0.5,0.1,0.7,0.1h1.2c0.1,0,0.2,0.1,0.3,0.1h0.2c0.1,0,0.2,0.1,0.3,0.1h0.2
		c0,0,0.1,0,0.1,0.1c0.1,0,0.2-0.1,0.3,0c0.1,0,0.2,0.1,0.3,0.1h0.9l0.1,0.1c0.1,0,0.3-0.1,0.4,0h1.1c0.2,0,0.4,0.1,0.6,0.1h0.3
		c0.3,0,0.6,0.1,0.9,0h1.1c0.1,0,0.2-0.1,0.3,0h0.6c0.4,0.1,0.9,0.1,1.2,0.2h0.8c0.3,0,0.7,0,1,0.1h1.5c0.1,0,0.1,0.1,0.2,0.1h0.8
		c0.3,0.1,0.6,0.1,0.9,0.1h1.8c0.2,0,0.4,0,0.6,0.1h0.5c0.1,0,0.1,0.1,0.2,0h0.2c0.1,0,0.4,0.1,0.5,0.1c0.2,0.1,0.6-0.1,0.7-0.1
		c0,0,0.1,0,0.1,0.1h1.8c0.4,0.1,0.9,0,1.3,0.1c0.2,0,0.3,0,0.4,0.2c0.1,0.1-0.1,0.1-0.2,0.2c0,0,0,0.1-0.1,0.1
		c-0.1,0.1-0.7,0-0.9,0h-0.7c-0.1,0-0.4-0.1-0.5,0c-0.1,0-0.1,0.1-0.2,0c-0.1,0-0.3,0-0.4-0.1h-0.2c-0.2,0-0.4-0.1-0.5,0h-3.1
		c-0.1,0-0.2,0.1-0.3,0.1h-1.5c-0.1,0-0.6,0.1-0.8,0.1h-0.4c-0.2,0-0.4-0.1-0.6,0h-0.4c-0.1,0-0.2,0-0.2,0.1H222
		c-0.2,0-0.4,0-0.6,0.1h-0.2c-0.1,0-0.4,0.1-0.6,0.1h-0.3c-0.4,0.1-0.9,0-1.2-0.1h-0.7c-0.1,0-0.3,0.1-0.4,0.1
		c-0.3,0.1-0.5,0-0.8,0.1c-0.1,0-0.2,0.1-0.2,0.1h-0.5c-0.3-0.1-0.6-0.1-0.9-0.2c-0.1,0-0.2,0-0.3,0.1H215c-0.2,0-0.4,0.1-0.6,0.2
		H214c-0.3,0.1-0.7,0-1-0.1h-0.7c-0.1,0-0.3,0.1-0.4,0.1c-0.1,0-0.2,0.1-0.3,0.2h-0.7c-0.1,0-0.2-0.1-0.3-0.1h-0.4
		c-0.1,0-0.2,0-0.3-0.1h-0.6c-0.1,0-0.2,0-0.3,0.1h-0.4c-0.1,0-0.3,0.1-0.5,0.1h-0.7c-0.2,0-0.3,0.1-0.4,0.1h-0.3
		c-0.2,0-0.3-0.1-0.5-0.1s-0.3,0.1-0.6,0.1c-0.1,0-0.2-0.2-0.3-0.2c-0.1-0.1-0.2-0.1-0.3-0.1c-0.1-0.1-0.1-0.1-0.1-0.2
		c-0.1-0.1-0.3-0.2-0.4-0.3c-0.1-0.1-0.1-0.3-0.1-0.4c0-0.1-0.1-0.2-0.1-0.4v-0.3c0-0.2,0.4-0.6,0.5-0.7c0.1,0,0.2-0.1,0.3-0.1
		s0.2-0.1,0.3-0.1h0.2l0.1-0.1h0.2c0.1,0,0.1-0.1,0.2-0.1C206.5,57.5,206.8,57.6,207,57.5L207,57.5z M203.2,69.6
		c0.5,0,0.3,0.2,0.5,0.3h0.2c0.1,0,0.1,0,0.2,0.1c0.1,0,0.1,0.2,0.2,0.2c0.2,0.1,0.4,0,0.5,0h0.2c0.3,0.1,0.5,0.3,0.8,0.4
		c0.1,0.1,0.3,0.1,0.4,0.1c0.3,0.2,0.5,0.4,0.9,0.6h0.3c0.1,0,0.3,0.1,0.4,0.1h0.1c0.1,0.1,0.2,0.2,0.3,0.2c0.2,0.1,0.3,0.2,0.5,0.3
		c0.3,0.2,0.7,0.3,1,0.4c0.1,0.1,0.3,0.2,0.4,0.3c0.1,0,0.2,0.1,0.3,0.1s0.1,0.1,0.2,0.1s0.2,0,0.3,0.1s0.2,0.2,0.3,0.2l0.6,0.3
		c0.2,0.1,0.3,0.1,0.5,0.2c0.1,0.1,0.3,0.2,0.4,0.2c0.1,0,0.2,0,0.3,0.1c0.3,0.1,0.5,0.4,0.8,0.5c0.2,0.1,0.4,0.1,0.5,0.1
		c0.2,0.1,0.4,0.2,0.5,0.3c0.2,0.1,0.3,0.1,0.5,0.2c0.1,0,0.2,0.1,0.3,0.2s0.2,0.1,0.3,0.1s0.1,0.1,0.2,0.2c0.1,0,0.3,0,0.4,0.1
		c0.1,0,0.2,0.1,0.3,0.1h0.3c0.1,0,0.2,0.1,0.3,0.1h0.1c0.2,0.1,0.3,0.2,0.4,0.3c0.3,0.2,0.6,0.3,0.9,0.4c0.1,0,0.1,0,0.2,0.1
		c0,0,0,0.1,0.1,0.1s0.1,0,0.2,0.1s0.2,0.2,0.4,0.3l0.6,0.3c0.1,0,0.1,0.1,0.2,0.1c0.2,0.1,0.3,0.1,0.5,0.2l0.1,0.1
		c0.1,0,0.1,0,0.2,0.1c0.1,0,0.1,0.1,0.2,0.1c0.2,0.1,0.4,0.1,0.6,0.3c0.1,0.1,0.2,0.1,0.3,0.2c0.1,0,0.1,0.1,0.2,0.2
		c0.1,0,0.2,0.1,0.3,0.1c0.2,0.1,0.3,0.2,0.5,0.3c0.1,0.1,0.3,0.1,0.3,0.3c0,0.1,0,0.1-0.1,0.1h-0.5c-0.1,0-0.2-0.1-0.3-0.2h-0.2
		c-0.1,0-0.1-0.1-0.1-0.1c-0.1-0.1-0.3-0.1-0.4-0.2c-0.2-0.1-0.5,0-0.7-0.1s-0.3-0.3-0.5-0.3c-0.1-0.1-0.3-0.1-0.4-0.1h-0.4
		c-0.1,0-0.2-0.1-0.3-0.1h-0.1c-0.2-0.1-0.3-0.2-0.4-0.2c-0.1-0.1-0.3-0.1-0.4-0.1c-0.1,0-0.1-0.1-0.2-0.1s-0.2,0-0.3-0.1l-0.1-0.1
		c-0.1,0-0.2,0-0.3-0.1c-0.1,0-0.1-0.1-0.2-0.1c-0.3-0.1-0.6-0.3-1-0.4c-0.1,0-0.3,0-0.4-0.1h-0.2c-0.2,0-0.4-0.1-0.6-0.2
		c-0.1,0-0.1-0.1-0.2-0.1c-0.1-0.1-0.2-0.1-0.3-0.1c-0.1-0.1-0.1-0.2-0.2-0.2c-0.2-0.1-0.3-0.1-0.4-0.1h-0.2c-0.1,0-0.2-0.1-0.3-0.1
		s-0.2,0-0.4-0.1l-0.1-0.1c-0.2-0.1-0.4,0-0.6-0.1c-0.2-0.1-0.5-0.2-0.7-0.3c-0.1,0-0.1,0-0.2-0.1s-0.2-0.2-0.3-0.2
		c-0.1-0.1-0.3,0-0.4-0.1c-0.1,0-0.2-0.1-0.3-0.1c-0.2,0-0.3,0-0.4-0.1c-0.1,0-0.1-0.1-0.2-0.1c-0.2,0-0.3,0-0.5-0.1
		c-0.2,0-0.3-0.1-0.5-0.2c-0.1,0-0.2,0-0.3-0.1c-0.3-0.1-0.5-0.3-0.8-0.4c-0.2-0.1-0.4,0-0.6-0.1c-0.2-0.1-0.4-0.1-0.7-0.2h-0.3
		c-0.3-0.1-0.6-0.2-0.8-0.3c-0.1,0-0.2-0.1-0.3-0.1l-0.1-0.1h-0.2c-0.1,0-0.2-0.1-0.2-0.1h-0.3c-0.1,0-0.2-0.1-0.3-0.1h-0.2
		c-0.1,0-0.3-0.1-0.4-0.2h-0.1c-0.1,0-0.2-0.2-0.3-0.2c-0.2-0.1-0.4,0-0.6,0c-0.3-0.1-0.8-0.6-1-0.8c0-0.1,0-0.1-0.1-0.2
		c0-0.1-0.1-0.2-0.2-0.3v-0.1c-0.1-0.4,0.1-0.8,0.2-1.1v-0.2c0-0.1,0.1-0.1,0.2-0.1l0.3-0.3C202.7,69.8,203,69.8,203.2,69.6
		L203.2,69.6z M145.1,70.2c0.5,0,0.7,0.1,1,0.3c0.1,0.1,0.2,0.1,0.3,0.2s0.1,0.2,0.1,0.3c0.1,0.2,0.2,0.4,0.1,0.7
		c-0.1,0.2-0.2,0.5-0.4,0.6c0,0-0.1,0.1-0.2,0.1c-0.1,0.1-0.1,0.5-0.3,0.5c0,0-0.1,0-0.2,0.1c-0.1,0-0.3,0.1-0.4,0.1
		c-0.2,0-0.4,0-0.5,0.1c-0.3,0.1-0.5,0.3-0.7,0.4c-0.1,0-0.2,0-0.3,0.1c-0.1,0-0.1,0.1-0.2,0.1h-0.2c-0.1,0-0.2,0.1-0.3,0.1
		c-0.2,0-0.3,0-0.5,0.1c-0.1,0-0.2,0.1-0.2,0.1c-0.1,0-0.2,0-0.2,0.1c-0.2,0.1-0.3,0.2-0.5,0.3c-0.3,0.1-0.7,0.2-1,0.3h-0.3
		c-0.1,0-0.2,0.1-0.3,0.2c-0.2,0.1-0.3,0.1-0.5,0.1c-0.1,0-0.2,0.1-0.3,0.2c-0.2,0.1-0.4,0.1-0.7,0.2c-0.1,0-0.3,0.1-0.4,0.2
		c-0.2,0-0.3,0-0.4,0.1c-0.2,0.1-0.5,0.2-0.8,0.3c-0.2,0.1-0.4,0.1-0.6,0.2l-0.1,0.1c-0.2,0.1-0.3,0.1-0.4,0.1l-0.6,0.3h-0.2
		c-0.1,0-0.3,0.1-0.5,0.2c-0.1,0.1-0.3,0.1-0.4,0.1c-0.1,0-0.1,0.1-0.1,0.1c-0.2,0.1-0.4,0.1-0.6,0.2c-0.2,0.1-0.5,0.3-0.8,0.3h-0.2
		c-0.2,0-0.3,0.1-0.5,0.1c-0.1,0-0.2,0-0.3,0.1l-0.3,0.3c-0.1,0-0.3,0.1-0.4,0.1H130c-0.1,0-0.1,0.1-0.2,0.2h-0.1
		c-0.2,0.1-0.2,0.3-0.4,0.4s-0.5,0-0.7,0.1c-0.1,0-0.2,0.1-0.2,0.1c-0.2,0.1-0.3,0.1-0.5,0.2c-0.1,0-0.2,0.1-0.2,0.1h-0.2
		c-0.5,0.2-1,0.4-1.4,0.6c-0.2,0.1-0.4,0.1-0.6,0.2c-0.1,0-0.2,0.2-0.3,0.2c-0.1,0.1-0.3,0.1-0.4,0.1l-0.1,0.1
		c-0.2,0.1-0.4,0.1-0.6,0.1c0-0.1-0.1-0.1-0.1-0.2v-0.1c0.4-0.2,0.8-0.5,1.3-0.7c0.2-0.1,0.3-0.1,0.5-0.1c0.1,0,0.1-0.1,0.2-0.1
		c0.1-0.1,0.3-0.1,0.4-0.1c0.2-0.1,0.4-0.2,0.7-0.3c0.2-0.1,0.3-0.1,0.5-0.2c0.1,0,0.2,0,0.3-0.1c0.1-0.1,0.3-0.2,0.4-0.3l0.1-0.1
		c0.1-0.1,0.3-0.1,0.5-0.1c0.1,0,0.2-0.1,0.4-0.2s0.4,0,0.5-0.1c0.3-0.2,0.5-0.4,0.8-0.6c0.1-0.1,0.2-0.1,0.4-0.1
		c0.1-0.1,0.2-0.1,0.4-0.2h0.2c0.2-0.1,0.5-0.3,0.7-0.4c0.1-0.1,0.3-0.1,0.4-0.2l0.1-0.1l1.5-0.6c0.1-0.1,0.3-0.2,0.4-0.2
		c0.1-0.1,0.2-0.1,0.4-0.2c0.1,0,0.1-0.1,0.2-0.2c0.4-0.2,0.9-0.3,1.3-0.5c0.3-0.1,0.6-0.3,1-0.5c0.1-0.1,0.3-0.1,0.4-0.1
		c0.2-0.1,0.5-0.2,0.7-0.4c0.1-0.1,0.3-0.1,0.4-0.2c0.1-0.1,0.2-0.2,0.3-0.2s0.2,0,0.3-0.1c0.1,0,0.1-0.1,0.2-0.1s0.2,0,0.3-0.1
		c0.2-0.1,0.4-0.2,0.7-0.4c0.1-0.1,0.2-0.1,0.3-0.2c0.2-0.1,0.4-0.1,0.6-0.2c0.1,0,0.1-0.1,0.2-0.2c0.1,0,0.1,0,0.2-0.1
		s0.2-0.3,0.3-0.3c0.1-0.1,0.2-0.1,0.3-0.1c0.1-0.1,0.2-0.1,0.3-0.2c0.2-0.1,0.4,0,0.5-0.1s0.2-0.2,0.3-0.2c0.2-0.2,0.5-0.3,0.8-0.4
		c0.1,0,0.2,0,0.4-0.1c0.1,0,0.3-0.1,0.5-0.1C144.9,70.2,145,70.3,145.1,70.2L145.1,70.2z">
  </path>
  <path class="st1" d="M191.9,76.8c0,1.7,0.7,1.6,1.7,1.9c0.6,0.2,1,1.8,0.4,1.8h-7.5c-0.3,0-0.5-0.7-0.5-1c0-0.6,0.5-1,0.5-2.2
		c0-1-0.5-2.2-2.3-2.2c-3.2,0-6.3,2.4-10.8,2.4c-3.8,0-7-2.5-9.4-2.5c-0.9,0-2.1,0.9-2.1,2s0.5,1.3,0.5,2.4c0,0.6-0.3,1-0.4,1h-7.5
		c-0.6,0-0.5-1.5,0.4-1.8c0.7-0.3,1.5-0.3,1.5-1.4c0-2.7-1.7-2.3-1.7-4.9c0-3.2,3.7-2.5,3.7-4.3c0-1-1.7-1-1.7-2.3
		c0-1.4,1.9-1.6,1.9-3.3c0-2.3-2.6-2.9-2.6-7.7c0-5.7,3.6-7,3.6-10.1c0-1.8-1.6-2-2.1-3.1c-0.2-0.4-0.1-1.2,0.8-1.2h11.4V24.4
		c-1.5-1.3-2.5-3.3-2.5-5.5c0-4,3.2-7.2,7.2-7.2s7.2,3.2,7.2,7.2c0,2.2-1,4.1-2.5,5.5v15.9h11.5c0.6,0,0.7,0.6,0.7,0.7
		c0,1.1-2.3,1.9-2.3,4c0,3.4,3.4,5.2,3.4,9.6c0,3.7-2.5,5.4-2.5,8c0,1.2,1.9,1.8,1.9,3.1c0,1-1.6,1.3-1.6,2.2c0,1.7,3.6,1.2,3.6,4.2
		C193.7,74.4,191.9,74.7,191.9,76.8L191.9,76.8z M191.1,71.9c0.3,1.2-0.5,1.7-1.3,2.9s-0.7,1.8-0.3,2.6c0.2,0.5,0.4,1-0.8,0.8
		c-0.5-0.1-0.9-0.7-0.9-1.6s0.9-2.3,0.9-3.1c0-1.5-1.1-1.4-1.4-1.9c-0.3-0.5,0.1-1.1,0.6-1.3C188.8,70.1,190.7,70.4,191.1,71.9z
		 M177.2,15.5c-0.8-0.7-1.8-1.2-3-1.2c-2.5,0-4.6,2-4.6,4.5v1.5c0,1.3-0.7,1.5-1.1,0.1c-0.1-0.5-0.2-1-0.2-1.5c0-3.3,2.7-5.9,6-5.9
		c1.3,0,2.7,0.6,3.6,1.5C179.4,15.8,178.3,16.5,177.2,15.5z M171.3,40.3V18.9c0-1.6,1.3-2.9,2.9-2.9c0.7,0,1.4,0.2,1.9,0.7
		c1.1,1.1,0.4,2-0.7,1c-0.3-0.3-0.7-0.4-1.2-0.4c-0.8,0-1.5,0.8-1.5,1.6v21.4C172.7,40.3,171.3,40.3,171.3,40.3z M184.1,70.4
		c1.1,0,0.6,1-0.2,1c-7.8,0.3-16.7,0.4-22,0.6c-1.2,0.1-2.4,0.7-2.2,3.6c0.1,1.3-0.4,2.1-1.1,2.4c-0.9,0.4-0.9-0.2-0.7-0.5
		c0.5-0.9,0.4-2.2-0.5-4.1c-0.8-1.7,0.6-3.1,2.2-3.1C160.3,70.4,183.6,70.4,184.1,70.4z M185.7,41.9c1,0,0.8,1-0.2,1.1
		c-0.5,0-19.6,0.6-20,0.6c-1.1,0-1.3,0.6-1.7,1.7c-0.4,1.2-1.2,2.4-2.5,4.3c-1.7,2.3-2.1,6.3-0.4,9.6c0.3,0.6-0.3,1.1-0.8,0.5
		c-2.2-2.8-2.6-6.9-0.9-9.9c0.8-1.5,2.4-3.6,2.4-5.2c0-0.9-0.3-1.4-0.5-1.9c-0.1-0.2,0-0.8,0.5-0.8C162.2,42,185.3,42,185.7,41.9
		L185.7,41.9z M180.3,47.6c2.3,0.2,4,1.5,4.7,4.5c0.3,1.1,0.5,4.3,0.1,6c-0.3,1.4-1.1,1.2-1.1-0.2c0.1-2.3,0.1-3.6-0.6-5.6
		c-0.6-1.9-1.9-2.5-3.3-2.7c-1.8-0.3-9.6-0.3-11.4-0.1c-1.8,0.2-2.6,0.8-3.1,1.8c-0.6,1.2-0.7,2.8-0.7,3.1c-0.3,1.3-1,1.3-1.2-0.1
		c-0.1-1,0-2.7,0.6-4c0.9-1.7,2.3-2.7,4.6-2.9C172,47.2,178,47.4,180.3,47.6z M175.8,56.9c0,3.7-0.7,5.1-1.9,5.1s-1.8-0.3-1.8-5.2
		c0-3.4,0.7-5,2.2-5C175.4,51.7,175.8,52.3,175.8,56.9z M181.3,56.9c0,3.6-0.7,5.2-2,5.2c-1.2,0-1.6-1.3-1.6-5s0.7-5.2,1.9-5.2
		C181,51.8,181.3,53.7,181.3,56.9L181.3,56.9z M170.1,56.8c0,4.3-0.9,5.2-2,5.2c-1.2,0-1.5-1.3-1.5-5c0-4.3,1-5.2,1.8-5.2
		C169.3,51.7,170.1,52.5,170.1,56.8z M160.4,64.6c-1.5,0.1-1.2,1.3-0.8,1.7c0.3,0.4,0.7,0.2,1.2,0c0.2-0.2,0.6-0.2,1.1-0.2
		c3.2-0.1,25.1-0.3,25.8-0.3c1.1,0,0.9-1.1-0.1-1.1C186.9,64.6,166,64.3,160.4,64.6z M185.8,46.6c-0.7,3.6,3.9,5.5,3.8,9.1
		c0,0.9-0.1,1.7-0.3,2.3c-0.2,0.5,0.1,0.6,0.4,0.2c0.1-0.1,0.7-1.2,0.8-2.7c0.2-4.1-3.3-5.9-3.1-8.3c0-0.4,0.2-1.2-0.2-1.5
		C186.8,45.5,185.9,45.7,185.8,46.6z">
  </path>
  <path d="M320.9,50.4c-13.5,10.5-33-2.5-28.1-19.2c-12.9,1.5-31.5-5.5-49.5-12.8C220,8.8,201.6,0,173.7,0s-46.3,8.8-69.6,18.3
		c-17.9,7.3-36.5,14.3-49.5,12.8C59.5,47.9,40,60.9,26.5,50.4c-35.2,24.8-36.7,85.8,3.6,110.5c11.4-10.1,31,0.2,27.2,17.1h232.6
		c-3.8-16.9,15.8-27.2,27.2-17.1C357.6,136.2,356,75.1,320.9,50.4L320.9,50.4z M317.3,153.8c-3.4-1.9-7.1-2.8-10.6-2.8
		c-5.9,0-11.5,2.3-15.8,6.2c-3.9,3.6-6.7,8.8-7.1,14.8H63.6c-0.4-6-3.2-11.2-7.1-14.8c-4.3-4-9.9-6.2-15.8-6.2
		c-3.6,0-7.3,0.9-10.6,2.8c-7.7-5.4-13.5-12.4-17.5-20.2c-4.5-8.9-6.8-18.9-6.8-28.9c0-9.7,2.1-19.5,6.2-28.1
		c3.5-7.5,8.5-14.1,14.8-19.3c3.4,1.7,7,2.6,10.5,2.5c6.3,0,12.2-2.5,16.6-6.7c4.2-4,7.1-9.7,7.3-16.2c6.5-0.4,13.3-2,20.4-4.2
		c8.1-2.5,16.5-5.8,24.7-9.2c11.7-4.8,22-9.3,32.6-12.5c10.6-3.3,21.5-5.3,34.8-5.3s24.2,2.1,34.8,5.3c10.6,3.3,20.8,7.7,32.6,12.5
		c8.2,3.3,16.6,6.7,24.7,9.2c7.1,2.2,13.9,3.8,20.4,4.2c0.2,6.5,3.1,12.2,7.3,16.2c4.4,4.2,10.3,6.7,16.6,6.7
		c3.5,0,7.1-0.8,10.5-2.5c6.3,5.2,11.3,11.8,14.8,19.3c4.1,8.6,6.2,18.3,6.2,28.1c0,10-2.2,20-6.8,28.9
		C330.8,141.5,325,148.4,317.3,153.8L317.3,153.8z">
  </path>
 </g>
</svg>