<svg version="1.1" id="Layer_1" xmlns:x="ns_extend;" xmlns:i="ns_ai;" xmlns:graph="ns_graphs;" xmlns="http://www.w3.org/2000/svg" xmlns:xlink="http://www.w3.org/1999/xlink" x="0px" y="0px" viewBox="0 0 611.9 134" style="enable-background:new 0 0 611.9 134;" xml:space="preserve">
 <style type="text/css">
  .st0{filter:url(#Adobe_OpacityMaskFilter);}
	.st1{fill-rule:evenodd;clip-rule:evenodd;fill:#FFFFFF;}
	.st2{mask:url(#mask-2_1_);fill-rule:evenodd;clip-rule:evenodd;fill:#66FF99;}
	.st3{filter:url(#Adobe_OpacityMaskFilter_1_);}
	.st4{mask:url(#mask-4_1_);fill-rule:evenodd;clip-rule:evenodd;fill:#66FF99;}
	.st5{filter:url(#Adobe_OpacityMaskFilter_2_);}
	.st6{mask:url(#mask-6_1_);fill-rule:evenodd;clip-rule:evenodd;fill:url(#Fill-8_1_);}
	.st7{filter:url(#Adobe_OpacityMaskFilter_3_);}
	.st8{mask:url(#mask-9_1_);fill-rule:evenodd;clip-rule:evenodd;fill:#1A4BB5;}
 </style>
 <metadata>
  <sfw xmlns="ns_sfw;">
   <slices>
   </slices>
   <sliceSourceBounds bottomLeftOrigin="true" height="134" width="611.9" x="-453.5" y="0.9">
   </sliceSourceBounds>
  </sfw>
 </metadata>
 <desc>
  Created with Sketch.
 </desc>
 <g id="NEW-Sears-Logo---Moments">
  <g id="NEW-Product-Options-Header---1024" transform="translate(-16.000000, -21.000000)">
   <g id="NEW-Sears-Logo-12-2019---PO-Header" transform="translate(16.000000, 21.000000)">
    <g id="TradeMark" transform="translate(170.281593, 36.063140)">
     <g id="Clip-12">
     </g>
     <defs>
      <filter id="Adobe_OpacityMaskFilter" filterUnits="userSpaceOnUse" x="425.4" y="89.1" width="7.2" height="7.9">
       <feColorMatrix type="matrix" values="1 0 0 0 0  0 1 0 0 0  0 0 1 0 0  0 0 0 1 0">
       </feColorMatrix>
      </filter>
     </defs>
     <mask maskUnits="userSpaceOnUse" x="425.4" y="89.1" width="7.2" height="7.9" id="mask-2_1_">
      <g class="st0">
       <polygon id="path-1_1_" class="st1" points="425.4,89.1 432.7,89.1 432.7,97 425.4,97 						">
       </polygon>
      </g>
     </mask>
     <polygon id="Fill-11" class="st2" points="428.3,90.4 425.4,90.4 425.4,89.1 432.7,89.1 432.7,90.4 429.8,90.4 429.8,97 
					428.3,97 				">
     </polygon>
     <g id="Clip-15">
     </g>
     <defs>
      <filter id="Adobe_OpacityMaskFilter_1_" filterUnits="userSpaceOnUse" x="433.9" y="89.1" width="7.8" height="7.9">
       <feColorMatrix type="matrix" values="1 0 0 0 0  0 1 0 0 0  0 0 1 0 0  0 0 0 1 0">
       </feColorMatrix>
      </filter>
     </defs>
     <mask maskUnits="userSpaceOnUse" x="433.9" y="89.1" width="7.8" height="7.9" id="mask-4_1_">
      <g class="st3">
       <polygon id="path-3_1_" class="st1" points="433.9,89.1 441.6,89.1 441.6,97 433.9,97 						">
       </polygon>
      </g>
     </mask>
     <polygon id="Fill-14" class="st4" points="433.9,89.1 435.3,89.1 437.8,92.9 440.2,89.1 441.6,89.1 441.6,97 440.3,97 
					440.3,91.4 437.8,95.1 437.7,95.1 435.2,91.4 435.2,97 433.9,97 				">
     </polygon>
    </g>
    <g id="NEW-Sears-ICON-12-2019" transform="translate(134.556799, 0.193599)">
     <g id="Clip-9">
     </g>
     <defs>
      <filter id="Adobe_OpacityMaskFilter_2_" filterUnits="userSpaceOnUse" x="335.6" y="-0.2" width="130.1" height="134">
       <feColorMatrix type="matrix" values="1 0 0 0 0  0 1 0 0 0  0 0 1 0 0  0 0 0 1 0">
       </feColorMatrix>
      </filter>
     </defs>
     <mask maskUnits="userSpaceOnUse" x="335.6" y="-0.2" width="130.1" height="134" id="mask-6_1_">
      <g class="st5">
       <path id="path-5_1_" class="st1" d="M359.1,28.3c-3.9,4.5-23.5,28-23.5,42.6l0,0c0,11.8,5.7,30.3,7.5,35.7l0,0
							c7.5,23,12,27.2,18.3,27.2l0,0c1.4,0,34.8-0.2,34.8-18.7l0,0V84c0-3.4,2.5-4.1,4.5-4.1l0,0c2.1,0,4.5,0.7,4.5,4.1l0,0v31.1
							c0,18.5,33.4,18.7,34.8,18.7l0,0c6.2,0,10.7-4.2,18.2-27.2l0,0c1.8-5.4,7.5-23.9,7.5-35.7l0,0c0-18.7-41.1-71.1-65.1-71.1l0,0
							C385.9-0.2,368.3,17.7,359.1,28.3 M352.7,70.9c0-3.8,6.7-16.8,19.3-31.4l0,0C386.3,23.1,397.1,17,400.7,17l0,0
							c12.3,0,47.9,42.7,47.9,54l0,0c0,11.3-8.1,36.8-12.5,45.5l0,0c-4.9-0.5-11.1-1.7-13.8-3.1l0,0V84c0-12.1-9.3-21.2-21.7-21.2
							l0,0c-12.4,0-21.7,9.1-21.7,21.2l0,0v29.3c-2.6,1.4-8.9,2.7-13.8,3.1l0,0C360.9,107.8,352.7,82.3,352.7,70.9">
       </path>
      </g>
     </mask>
     <linearGradient id="Fill-8_1_" gradientUnits="userSpaceOnUse" x1="200.6973" y1="311.871" x2="203.7386" y2="314.0637" gradientTransform="matrix(33.4773 0 0 -34.4698 -6370.4888 10868.2246)">
      <stop offset="0" style="stop-color:#66FF99">
      </stop>
      <stop offset="1" style="stop-color:#33FFFF">
      </stop>
     </linearGradient>
     <path id="Fill-8" class="st6" d="M359.1,28.3c-3.9,4.5-23.5,28-23.5,42.6l0,0c0,11.8,5.7,30.3,7.5,35.7l0,0
					c7.5,23,12,27.2,18.3,27.2l0,0c1.4,0,34.8-0.2,34.8-18.7l0,0V84c0-3.4,2.5-4.1,4.5-4.1l0,0c2.1,0,4.5,0.7,4.5,4.1l0,0v31.1
					c0,18.5,33.4,18.7,34.8,18.7l0,0c6.2,0,10.7-4.2,18.2-27.2l0,0c1.8-5.4,7.5-23.9,7.5-35.7l0,0c0-18.7-41.1-71.1-65.1-71.1l0,0
					C385.9-0.2,368.3,17.7,359.1,28.3 M352.7,70.9c0-3.8,6.7-16.8,19.3-31.4l0,0C386.3,23.1,397.1,17,400.7,17l0,0
					c12.3,0,47.9,42.7,47.9,54l0,0c0,11.3-8.1,36.8-12.5,45.5l0,0c-4.9-0.5-11.1-1.7-13.8-3.1l0,0V84c0-12.1-9.3-21.2-21.7-21.2l0,0
					c-12.4,0-21.7,9.1-21.7,21.2l0,0v29.3c-2.6,1.4-8.9,2.7-13.8,3.1l0,0C360.9,107.8,352.7,82.3,352.7,70.9">
     </path>
    </g>
    <g id="Sears-Word-Mark" transform="translate(0.281593, 1.646399)">
     <g id="Clip-5">
     </g>
     <defs>
      <filter id="Adobe_OpacityMaskFilter_3_" filterUnits="userSpaceOnUse" x="-0.3" y="17.6" width="425.9" height="111.4">
       <feColorMatrix type="matrix" values="1 0 0 0 0  0 1 0 0 0  0 0 1 0 0  0 0 0 1 0">
       </feColorMatrix>
      </filter>
     </defs>
     <mask maskUnits="userSpaceOnUse" x="-0.3" y="17.6" width="425.9" height="111.4" id="mask-9_1_">
      <g class="st7">
       <path id="path-8_1_" class="st1" d="M-0.3,17.6C217.8-1,363.2-1,435.9,17.6s72.7,55.7,0,111.4H-0.3V17.6z">
       </path>
      </g>
     </mask>
     <path id="Fill-4" class="st8" d="M262.9,71c-5.9,3.1-14.7,3.8-23.9,4.6c-3.4,0.3-6.9,0.6-10.4,1c-18.4,2.3-25.9,8.4-25.9,21.3
					c0,12.1,9.6,19.9,24.4,19.9c34.6,0,35.7-32,35.7-32.4V71z M237.1,17.6c24.5,0,38,10.3,38,28.9v80.1h-12.2v-14.3
					c-6.4,8.7-18.3,16.7-35.9,16.7c-23.5,0-36.4-11-36.4-31.1c0-19.7,13.3-30.6,39.7-32.5c32.9-2.5,32.9-3.7,32.9-18.9
					c0-3.7-4.4-17.7-26-17.7c-17.8,0-28.1,8.9-29,25l-0.1,1h-12.2l0-1C196.9,30.3,211.5,17.6,237.1,17.6L237.1,17.6z M103.1,65.4
					h69.7c-1.3-18.5-13.3-36.6-34.8-36.6C117.8,28.8,105.4,46.8,103.1,65.4L103.1,65.4z M172.4,88h12.2l-0.3,1.9
					c-4.2,25.3-20.7,39.1-46.4,39.1c-28.8,0-47.3-21.2-47.3-53.9c0-28.6,14.6-57.5,47.3-57.5c13.8,0,25.1,4.4,33.4,13.2
					c9.7,10.2,14.6,25.7,13.7,43.6l-0.1,2.2h-82.2c0.3,12.9,4.5,24.4,11.8,31.8c6,6.1,14.1,9.4,23.4,9.4c18,0,30.8-10.6,34.2-28.4
					L172.4,88L172.4,88z M289.8,126.5H302V68.5c0-14.4,3.3-20.2,10.8-27.7c8.2-8.2,17.7-9.5,22.5-9.5c1.2,0,2.5,0.1,4,0.3l2.4,0.3
					V19.4l-2.2-0.1c-0.7,0-1.3,0-2,0c-14.5,0-28.3,6.9-35.4,16.9V19.9h-12.2V126.5L289.8,126.5z M383.5,128.9
					c9.9,0,42.2-2.2,42.2-30.5c0-22.9-17.2-28.1-38-32.2l-2.2-0.5c-15.3-3.1-29.8-6-29.8-19.7c0-12.8,14-17.3,27-17.3
					c12.6,0,27.6,4.1,27.8,23.9l0,2.1h12.2v-2.3c0-22.2-14.6-34.9-40-34.9c-9.2,0-39.2,2.1-39.2,28.5c0,21.9,17.5,27.3,37,31.2
					l2.7,0.6c16.3,3.3,30.3,6.1,30.3,20.5c0,17.9-22.9,19.3-30,19.3c-18,0-30.3-10.8-31.4-27.8l-0.1-2h-12.1l0,2.4
					C340.5,114.1,357.2,128.9,383.5,128.9L383.5,128.9z M43.3,128.9c-26.3,0-43-14.8-43.6-38.6L-0.3,88h12.1l0.1,2
					c1.1,17,13.4,27.8,31.4,27.8c7,0,30-1.4,30-19.3C73.3,84,59.3,81.1,43,77.9l-2.7-0.6c-19.5-3.9-37-9.3-37-31.2
					c0-26.5,30-28.5,39.2-28.5c25.4,0,40,12.7,40,34.9v2.3H70.4l0-2.1c-0.2-19.8-15.2-23.9-27.8-23.9c-13.1,0-27,4.5-27,17.3
					c0,13.6,14.5,16.6,29.8,19.7l2.2,0.5c20.8,4.1,38,9.3,38,32.2C85.5,126.7,53.3,128.9,43.3,128.9L43.3,128.9z">
     </path>
    </g>
   </g>
  </g>
 </g>
</svg>