<svg version="1.1" id="Layer_1" xmlns="http://www.w3.org/2000/svg" xmlns:xlink="http://www.w3.org/1999/xlink" x="0px" y="0px" viewBox="0 0 200 60.8" style="enable-background:new 0 0 200 60.8;" xml:space="preserve">
 <style type="text/css">
  .st0{fill:#005BAB;}
	.st1{clip-path:url(#SVGID_2_);fill:url(#SVGID_3_);}
	.st2{clip-path:url(#SVGID_5_);fill:url(#SVGID_6_);}
	.st3{clip-path:url(#SVGID_8_);fill:url(#SVGID_9_);}
	.st4{clip-path:url(#SVGID_11_);fill:url(#SVGID_12_);}
 </style>
 <g>
  <g>
   <path class="st0" d="M193.3,60.3l-5.6-8c-2.6,2.6-4.2,5.4-5.1,8h-6.2c1.4-4,4.1-8.1,8.3-12.1l-8.4-11.4h6.7l5.6,8
			c2.6-2.5,4-5.2,4.9-8h6c-1.8,5.7-5,9.3-8,12l8.5,11.5H193.3z">
   </path>
   <path class="st0" d="M95.5,36.8h-6.1l-4.7,10.8c-2.4-2.5-4.6-6.8-5.4-10.8h-6.2c1.8,7.1,5.4,12.2,9.1,15.8l-4,7.8h6.2L95.5,36.8z">
   </path>
   <path class="st0" d="M104.8,60.8c-2.8,0-6.1-0.8-8.4-1.8l1.6-4.5c1.7,0.9,3.9,1.7,6.2,1.7c2.2,0,3.9-0.3,3.9-2.5
			c0-1.5-1.3-2.1-5.2-3.4c-3.8-1.3-6.4-2.9-6.4-7.1c0-4.8,4.2-6.9,8.2-6.9c2.6,0,6,0.6,7.9,1.4l-1.5,4.4c-1.6-0.6-3.5-1.1-5.1-1.1
			c-2.1-0.1-3.8,0.5-3.8,2.2c0,1.6,1.2,2.1,6,3.7c3,1,5.7,2.5,5.7,6.6C113.8,58.6,109.2,60.8,104.8,60.8">
   </path>
   <path class="st0" d="M63.1,60.8c-2.8,0-6.1-0.8-8.4-1.8l1.6-4.5c1.7,0.9,3.9,1.7,6.2,1.7c2.2,0,3.9-0.3,3.9-2.5
			c0-1.5-1.3-2.1-5.2-3.4c-3.8-1.3-6.4-2.9-6.4-7.1c0-4.8,4.2-6.9,8.2-6.9c2.6,0,6,0.6,7.9,1.4l-1.5,4.4c-1.6-0.6-3.5-1.1-5.1-1.1
			c-2.1-0.1-3.8,0.5-3.8,2.2c0,1.6,1.2,2.1,6,3.7c3,1,5.7,2.5,5.7,6.6C72.1,58.6,67.5,60.8,63.1,60.8">
   </path>
   <path class="st0" d="M143.3,60.3V45.5c0-2.6-1-4.3-3.6-4.3c-1.4,0-2.4,0.5-3.6,1.2c0.2,0.9,0.2,1.8,0.2,2.8v15.1h-5.7V45.5
			c0-2.6-1.2-4.3-3.5-4.3c-1.3,0-2.2,0.4-3.6,1c0,0.2,0.1,0.7,0.1,1v17h-5.7V41.7c0-1-0.2-2.4-0.3-3.1c3.4-1.3,7.2-2.4,10.1-2.4
			c3.2,0,4.9,0.5,6.5,2.2c2.1-1.2,3.9-2.2,7.2-2.2c5.1,0,7.7,3,7.7,8.1v15.9H143.3z">
   </path>
   <path class="st0" d="M174.6,50.6H159c0.3,3.3,2.8,5.6,6.6,5.7c2.5,0,4.5-0.7,6.4-1.8l1.8,4.2c-2.6,1.5-6,2.2-8.6,2.2
			c-7.4,0-12.1-4.9-12.1-12.2c0-6.8,4.2-12.3,11.3-12.3c7,0,10.4,5.4,10.4,11.2C174.9,48.5,174.8,49.5,174.6,50.6 M164.4,40.8
			c-3.1,0-5.2,2.6-5.4,5.4h10.3C169.3,43.2,167.6,40.8,164.4,40.8">
   </path>
  </g>
  <g>
   <defs>
    <path id="SVGID_1_" d="M65.7,0c-0.8,0.1-1.4,0.5-2.6,1.4C61.9,2.4,42,17.7,42,17.7l15.6,5.5c6-4.6,18.6-12.7,27.2-11.9
				c0,0-15.2-9.9-16.5-10.7C67.8,0.3,67,0,66.2,0C66.1,0,65.9,0,65.7,0">
    </path>
   </defs>
   <clipPath id="SVGID_2_">
    <use href="#SVGID_1_" style="overflow:visible;">
    </use>
   </clipPath>
   <linearGradient id="SVGID_3_" gradientUnits="userSpaceOnUse" x1="-502.1671" y1="447.3852" x2="-500.9212" y2="447.3852" gradientTransform="matrix(34.3703 0 0 -34.3703 17301.6875 15388.3789)">
    <stop offset="0" style="stop-color:#B5D460">
    </stop>
    <stop offset="0.1092" style="stop-color:#ACD260">
    </stop>
    <stop offset="0.2874" style="stop-color:#94CC62">
    </stop>
    <stop offset="0.5124" style="stop-color:#6CC264">
    </stop>
    <stop offset="0.7725" style="stop-color:#35B567">
    </stop>
    <stop offset="1" style="stop-color:#00A86A">
    </stop>
   </linearGradient>
   <rect x="42" y="0" class="st1" width="42.8" height="23.2">
   </rect>
  </g>
  <g>
   <defs>
    <path id="SVGID_4_" d="M0.6,19.9C0.2,20.2,0,20.4,0,20.7c0,0.2,0.2,0.6,0.9,1.3c0.7,0.8,3.1,3.2,5.6,4.9c2.6,1.7,5.1,2.1,6.6,2.2
				c3.4,0.3,8.1-1,13.5-3.7c4.9-2.4,9.1-5.3,11.3-7c0,0-2-0.7-2.2-0.8c-5.4-1.9-11.1-2.8-16.5-2.8C11.9,14.8,5.2,16.5,0.6,19.9">
    </path>
   </defs>
   <clipPath id="SVGID_5_">
    <use xlink:href="#SVGID_4_" style="overflow:visible;">
    </use>
   </clipPath>
   <linearGradient id="SVGID_6_" gradientUnits="userSpaceOnUse" x1="-502.9126" y1="446.047" x2="-501.6662" y2="446.047" gradientTransform="matrix(30.511 0 0 -30.511 15344.333 13631.4033)">
    <stop offset="0" style="stop-color:#005BAB">
    </stop>
    <stop offset="9.902442e-02" style="stop-color:#006AB6">
    </stop>
    <stop offset="0.3289" style="stop-color:#0087CA">
    </stop>
    <stop offset="0.5576" style="stop-color:#009BD9">
    </stop>
    <stop offset="0.7827" style="stop-color:#00A8E2">
    </stop>
    <stop offset="1" style="stop-color:#00ACE5">
    </stop>
   </linearGradient>
   <rect x="0" y="14.8" class="st2" width="38" height="14.6">
   </rect>
  </g>
  <g>
   <defs>
    <path id="SVGID_7_" d="M13,31c0,0,15.2,9.9,16.5,10.7c0.8,0.5,1.8,0.8,2.7,0.6c0.8-0.1,1.4-0.5,2.6-1.4
				c1.2-1,21.1-16.3,21.1-16.3l-15.6-5.5C34.2,23.8,21.6,31.8,13,31">
    </path>
   </defs>
   <clipPath id="SVGID_8_">
    <use xlink:href="#SVGID_7_" style="overflow:visible;">
    </use>
   </clipPath>
   <linearGradient id="SVGID_9_" gradientUnits="userSpaceOnUse" x1="-502.3337" y1="447.2744" x2="-501.0879" y2="447.2744" gradientTransform="matrix(34.3727 0 0 -34.3727 17279.5586 15404.8408)">
    <stop offset="0" style="stop-color:#55C2F0">
    </stop>
    <stop offset="0.1881" style="stop-color:#4FBFEF">
    </stop>
    <stop offset="0.434" style="stop-color:#3FB7EA">
    </stop>
    <stop offset="0.7122" style="stop-color:#24A9E3">
    </stop>
    <stop offset="1" style="stop-color:#0097DA">
    </stop>
   </linearGradient>
   <rect x="13" y="19.1" class="st3" width="42.8" height="23.3">
   </rect>
  </g>
  <g>
   <defs>
    <path id="SVGID_10_" d="M71.1,17c-4.9,2.4-9.1,5.3-11.3,7c0,0,2,0.7,2.2,0.8c12.7,4.5,27.3,3.6,35.2-2.3c0.4-0.3,0.6-0.5,0.6-0.8
				c0-0.2-0.2-0.6-0.9-1.3c-0.7-0.8-3.1-3.2-5.6-4.9c-2.6-1.7-5.1-2.1-6.6-2.2c-0.3,0-0.7,0-1,0C80.4,13.2,76.1,14.5,71.1,17">
    </path>
   </defs>
   <clipPath id="SVGID_11_">
    <use xlink:href="#SVGID_10_" style="overflow:visible;">
    </use>
   </clipPath>
   <linearGradient id="SVGID_12_" gradientUnits="userSpaceOnUse" x1="-502.5247" y1="446.0353" x2="-501.2783" y2="446.0353" gradientTransform="matrix(30.5134 0 0 -30.5134 15393.5469 13631.2598)">
    <stop offset="0" style="stop-color:#7FC170">
    </stop>
    <stop offset="0.1724" style="stop-color:#7BC06F">
    </stop>
    <stop offset="0.3511" style="stop-color:#6EBC6A">
    </stop>
    <stop offset="0.5327" style="stop-color:#5AB563">
    </stop>
    <stop offset="0.7162" style="stop-color:#3DAC59">
    </stop>
    <stop offset="0.8996" style="stop-color:#18A04C">
    </stop>
    <stop offset="1" style="stop-color:#009844">
    </stop>
   </linearGradient>
   <rect x="59.8" y="13.2" class="st4" width="38" height="16">
   </rect>
  </g>
 </g>
</svg>